<?xml version="1.0" standalone="no"?>
<!DOCTYPE svg PUBLIC "-//W3C//DTD SVG 1.1//EN" "http://www.w3.org/Graphics/SVG/1.1/DTD/svg11.dtd" >
<svg xmlns="http://www.w3.org/2000/svg" xmlns:xlink="http://www.w3.org/1999/xlink" version="1.1">
<metadata></metadata>
<defs>
<font id="faricynew-lightuploaded_file" horiz-adv-x="1222" >
<font-face units-per-em="2048" ascent="1561" descent="-487" />
<missing-glyph horiz-adv-x="512" />
<glyph unicode="&#xfb01;" horiz-adv-x="1038" d="M25 911v103h168v172q0 166 90 249q91 83 252 83q128 0 276 -43l-25 -107q-137 35 -237 35q-131 0 -184 -54q-54 -56 -54 -175v-160h570v-1014h-119v911h-451v-911h-118v911h-168z" />
<glyph unicode="&#xfb02;" horiz-adv-x="1052" d="M25 911v103h168v172q0 166 90 249q91 83 252 83q115 0 227 -27h119v-1317q0 -94 88 -94l-21 -105q-84 0 -135 42t-51 126v1233q-117 27 -213 27q-131 0 -184 -54q-54 -56 -54 -175v-160h277v-103h-277v-911h-118v911h-168z" />
<glyph unicode="&#xfb03;" horiz-adv-x="1642" d="M25 911v103h168v192q0 153 85 232q86 80 232 80q74 0 154 -23l-25 -111q-63 19 -119 19q-111 0 -160 -52t-49 -157v-180h486v172q0 166 90 249q91 83 252 83q128 0 276 -43l-24 -107q-137 35 -238 35q-131 0 -184 -54q-54 -56 -54 -175v-160h570v-1014h-119v911h-451 v-911h-118v911h-486v-911h-118v911h-168z" />
<glyph unicode="&#xfb04;" horiz-adv-x="1656" d="M25 911v103h168v192q0 153 85 232q86 80 232 80q74 0 154 -23l-25 -111q-63 19 -119 19q-111 0 -160 -52t-49 -157v-180h486v172q0 166 90 249q91 83 252 83q127 0 227 -27h119v-1317q0 -94 88 -94l-21 -105q-84 0 -135 42t-51 126v1233q-117 27 -213 27q-131 0 -184 -54 q-54 -56 -54 -175v-160h277v-103h-277v-911h-118v911h-486v-911h-118v911h-168z" />
<glyph horiz-adv-x="0" />
<glyph unicode="&#xd;" horiz-adv-x="681" />
<glyph unicode=" "  horiz-adv-x="512" />
<glyph unicode="&#x09;" horiz-adv-x="512" />
<glyph unicode="&#xa0;" horiz-adv-x="512" />
<glyph unicode="!" horiz-adv-x="542" d="M178 68q0 39 27 63q28 25 67 25q38 0 66 -25q27 -24 27 -63q0 -38 -27 -65q-28 -28 -66 -28t-66 28t-28 65zM213 360v1059h119v-1059h-119z" />
<glyph unicode="&#x22;" horiz-adv-x="700" d="M178 1491h119l-21 -492h-77zM403 1491h119l-20 -492h-78z" />
<glyph unicode="#" horiz-adv-x="1224" d="M127 352v115h174l41 467h-166v115h176l31 354h115l-31 -354h352l31 354h115l-31 -354h166v-115h-176l-39 -467h145v-115h-156l-30 -352h-115l31 352h-354l-31 -352h-115l31 352h-164zM416 467h354l39 467h-352z" />
<glyph unicode="$" horiz-adv-x="1050" d="M104 76l37 110q197 -94 351 -94q140 0 232 72q91 72 91 186q0 85 -50 149q-49 62 -126 94q-57 23 -163 71q-99 44 -163 77q-77 39 -126 117q-50 79 -50 184q0 149 91 244q93 97 247 115v231h119v-229q136 -12 281 -72l-35 -112q-161 67 -297 67q-135 0 -206 -65 q-73 -67 -73 -179q0 -71 38 -124q39 -55 97 -88q53 -31 131 -63q72 -30 145 -65q74 -36 132 -76q59 -41 97 -113q38 -71 38 -163q0 -151 -101 -249q-102 -99 -263 -121v-234h-119v229q-175 7 -355 101z" />
<glyph unicode="%" horiz-adv-x="1843" d="M115 1061q0 154 97 260t249 106t249 -106t97 -260t-97 -260q-98 -107 -249 -107t-249 107q-97 106 -97 260zM221 1061q0 -109 68 -189q67 -79 172 -79t172 79t67 189q0 109 -67 188q-68 80 -172 80t-172 -80t-68 -188zM582 0l561 1401h123l-561 -1401h-123zM1057 340 q0 154 97 260q98 107 249 107t249 -107q97 -106 97 -260t-97 -260q-98 -107 -249 -107t-249 107q-97 106 -97 260zM1163 340q0 -108 68 -188t172 -80t172 80q67 79 67 188t-67 188q-68 80 -172 80t-172 -80t-68 -188z" />
<glyph unicode="&#x26;" horiz-adv-x="1263" d="M143 330q0 138 75 240q74 100 206 190q-98 189 -98 346q0 156 89 248t236 92q141 0 216 -84t75 -213q0 -66 -31 -128q-30 -59 -94 -116q-59 -52 -112 -89q-39 -27 -132 -83q124 -218 338 -446q101 124 140 241l106 -41q-71 -157 -166 -278q98 -98 174 -156l-86 -78 q-64 49 -168 148q-159 -150 -356 -150q-196 0 -304 105t-108 252zM270 350q0 -130 79 -196t206 -66q145 0 276 117q-221 236 -354 461q-207 -150 -207 -316zM451 1106q0 -118 73 -279q62 40 114 74q28 19 87 69q51 44 72 87q20 41 20 92q0 87 -43 137q-44 51 -123 51 q-98 0 -149 -61q-51 -62 -51 -170z" />
<glyph unicode="'" horiz-adv-x="475" d="M178 1491h119l-21 -492h-77z" />
<glyph unicode="(" horiz-adv-x="776" d="M233 616q0 526 338 992h117q-338 -506 -338 -992q0 -485 338 -991h-117q-338 466 -338 991z" />
<glyph unicode=")" horiz-adv-x="776" d="M88 -375q338 506 338 991q0 486 -338 992h117q338 -466 338 -992q0 -525 -338 -991h-117z" />
<glyph unicode="*" horiz-adv-x="909" d="M115 1200l39 117l262 -109l-21 283h119l-20 -283l264 109l37 -117l-279 -67l184 -215l-96 -72l-151 239l-148 -239l-96 72l182 215z" />
<glyph unicode="+" horiz-adv-x="1232" d="M176 467v119h381v381h119v-381h381v-119h-381v-381h-119v381h-381z" />
<glyph unicode="," horiz-adv-x="444" d="M115 -322l84 486l127 -23l-129 -477z" />
<glyph unicode="-" horiz-adv-x="905" d="M164 471v115h577v-115h-577z" />
<glyph unicode="." horiz-adv-x="499" d="M156 70q0 39 27 66q28 28 67 28q35 0 65 -28q29 -27 29 -66q0 -37 -29 -66t-65 -29q-40 0 -67 29q-27 28 -27 66z" />
<glyph unicode="/" horiz-adv-x="868" d="M123 -199l504 1694h118l-501 -1694h-121z" />
<glyph unicode="0" horiz-adv-x="1134" d="M104 709q0 364 125 551q125 186 338 186t338 -186q125 -187 125 -551q0 -362 -125 -549t-338 -187t-338 187t-125 549zM227 709q0 -621 340 -621t340 621q0 622 -340 622t-340 -622z" />
<glyph unicode="1" horiz-adv-x="880" d="M104 1270l340 149h111v-1304h254v-115h-657v115h284v1179l-286 -129z" />
<glyph unicode="2" horiz-adv-x="1054" d="M104 0v109q147 130 220 196t178 177q104 110 152 186q53 83 88 175q38 99 38 189q0 128 -81 213q-81 86 -218 86q-147 0 -293 -74l-47 103q158 86 340 86q181 0 302 -109q120 -108 120 -301q0 -122 -52 -245q-52 -124 -155 -251q-102 -126 -189 -216q-91 -94 -216 -209 h612v-115h-799z" />
<glyph unicode="3" horiz-adv-x="974" d="M59 43l39 104q153 -59 291 -59q161 0 253 83q91 82 91 220q0 141 -108 221q-109 80 -263 80h-77v115h84q118 0 215 74q96 73 96 190q0 115 -80 187q-81 73 -205 73q-139 0 -284 -69l-48 102q157 82 332 82q189 0 298 -99q110 -99 110 -276q0 -93 -61 -181 q-60 -87 -162 -138q140 -43 208 -140t68 -221q0 -175 -123 -297q-122 -121 -344 -121q-158 0 -330 70z" />
<glyph unicode="4" horiz-adv-x="1118" d="M92 453l557 966h191v-958h186v-115h-186v-346h-119v346h-619zM221 461h500v868z" />
<glyph unicode="5" horiz-adv-x="1071" d="M80 72l39 106q198 -90 336 -90q174 0 274 101t100 274q0 137 -85 231t-269 94q-135 0 -309 -69l45 700h680v-114h-563l-33 -435q102 33 190 33q234 0 351 -129q116 -128 116 -311q0 -219 -136 -354q-138 -136 -361 -136q-174 0 -375 99z" />
<glyph unicode="6" horiz-adv-x="1146" d="M104 467q0 113 39 201l322 751h131l-225 -508q91 47 202 47q200 0 334 -143q135 -144 135 -348q0 -205 -135 -349q-136 -145 -334 -145q-197 0 -333 145t-136 349zM227 467q0 -157 99 -268t247 -111q149 0 248 111t99 268t-99 267t-248 110q-148 0 -247 -110t-99 -267z " />
<glyph unicode="7" horiz-adv-x="1007" d="M59 1305v114h895v-98l-548 -1321h-138l551 1305h-760z" />
<glyph unicode="8" horiz-adv-x="1124" d="M111 358q0 76 24 136q23 58 73 103q54 49 97 75q56 34 121 61q-131 63 -203 146q-71 81 -71 217q0 164 124 257q125 93 285 93q163 0 287 -93q125 -93 125 -257q0 -132 -73 -214q-72 -81 -204 -143q153 -70 235 -153q83 -85 83 -228q0 -174 -133 -279 q-135 -106 -320 -106q-182 0 -317 106q-133 105 -133 279zM233 354q0 -119 99 -191q100 -73 229 -73q131 0 231 73q99 72 99 191q0 66 -26 116q-26 51 -82 89q-62 43 -101 62q-45 23 -129 57q-68 -27 -123 -55q-46 -24 -97 -64q-52 -41 -75 -89q-25 -52 -25 -116zM274 1096 q0 -108 75 -174t218 -127q141 63 210 127q73 67 73 174q0 97 -79 166t-210 69q-129 0 -208 -69t-79 -166z" />
<glyph unicode="9" horiz-adv-x="1146" d="M104 952q0 205 136 350q135 144 333 144q199 0 334 -144t135 -350q0 -108 -28 -176l-332 -776h-131l225 508q-94 -49 -203 -49q-199 0 -333 143q-136 145 -136 350zM227 952q0 -157 99 -268t247 -111q149 0 248 111t99 268q0 158 -99 269q-98 110 -248 110 q-149 0 -247 -110q-99 -111 -99 -269z" />
<glyph unicode=":" horiz-adv-x="516" d="M164 70q0 39 27 66q28 28 67 28q36 0 66 -28q28 -27 28 -66q0 -38 -28 -66q-29 -29 -66 -29q-40 0 -67 29q-27 28 -27 66zM164 791q0 37 27 65q27 29 67 29q37 0 66 -29q28 -28 28 -65q0 -40 -28 -67q-30 -28 -66 -28q-39 0 -67 28q-27 27 -27 67z" />
<glyph unicode=";" horiz-adv-x="516" d="M111 -322l84 486l127 -23l-129 -477zM164 791q0 37 27 65q27 29 67 29q37 0 66 -29q28 -28 28 -65q0 -40 -28 -67q-30 -28 -66 -28q-39 0 -67 28q-27 27 -27 67z" />
<glyph unicode="&#x3c;" horiz-adv-x="1116" d="M217 528l602 508l80 -90l-493 -418l493 -417l-80 -91z" />
<glyph unicode="=" horiz-adv-x="1232" d="M176 246v119h881v-119h-881zM176 688v119h881v-119h-881z" />
<glyph unicode="&#x3e;" horiz-adv-x="1116" d="M217 111l494 417l-494 418l80 90l602 -508l-602 -508z" />
<glyph unicode="?" horiz-adv-x="1032" d="M164 1343q176 103 325 103q176 0 276 -103q99 -102 99 -229q0 -79 -34 -151q-37 -78 -80 -134q-5 -7 -41 -52t-54 -70q-45 -61 -81 -147q-33 -79 -33 -175h-121q0 125 50 237q49 110 111 178t110 147q50 82 50 153q0 98 -63 163q-63 64 -186 64q-127 0 -273 -88zM387 66 q0 38 27 64q28 26 67 26t67 -26q27 -26 27 -64q0 -37 -27 -64t-67 -27t-67 27t-27 64z" />
<glyph unicode="@" horiz-adv-x="1972" d="M115 477q0 406 247 650q248 245 644 245q386 0 619 -248t233 -659q0 -218 -86 -342q-86 -123 -252 -123q-187 0 -220 197q-114 -197 -339 -197q-190 0 -312 140q-123 141 -123 345q0 201 124 341q124 141 311 141q206 0 325 -170v143l109 -18v-656q0 -178 137 -178 q219 0 219 377q0 370 -203 590q-203 219 -542 219q-350 0 -567 -217q-218 -218 -218 -580q0 -361 210 -570q209 -208 554 -208q202 0 361 72l28 -90q-192 -80 -387 -80q-393 0 -632 233q-240 234 -240 643zM637 485q0 -171 94 -275q95 -106 230 -106q134 0 232 106 q97 104 97 275q0 169 -97 273t-232 104q-133 0 -228 -104q-96 -105 -96 -273z" />
<glyph unicode="A" horiz-adv-x="1247" d="M66 0l479 1419h157l480 -1419h-125l-154 457h-559l-154 -457h-124zM383 571h481l-172 508q-6 18 -69 221q-35 -120 -68 -221z" />
<glyph unicode="B" horiz-adv-x="1161" d="M178 0v1419h371q220 0 330 -104t110 -266q0 -205 -186 -297q127 -40 199 -135q71 -94 71 -218q0 -168 -127 -283q-128 -116 -340 -116h-428zM301 119h277q183 0 275 76q93 77 93 204q0 131 -93 210q-92 79 -275 79h-277v-569zM301 791h244q156 0 236 70q81 71 81 188 q0 114 -85 183q-84 68 -242 68h-234v-509z" />
<glyph unicode="C" horiz-adv-x="1325" d="M115 709q0 318 187 527q188 210 519 210q211 0 396 -72l-31 -110q-177 61 -365 61q-283 0 -431 -174q-148 -173 -148 -442q0 -270 148 -442q149 -173 431 -173q164 0 363 70l33 -119q-186 -72 -396 -72q-331 0 -519 210q-187 209 -187 526z" />
<glyph unicode="D" horiz-adv-x="1409" d="M178 0v1419h465q317 0 484 -201q167 -202 167 -513q0 -312 -166 -508q-167 -197 -485 -197h-465zM301 119h320q149 0 259 48t170 132q61 86 89 185q28 100 28 221q0 123 -28 223q-28 102 -89 188q-60 85 -170 135q-108 49 -259 49h-320v-1181z" />
<glyph unicode="E" horiz-adv-x="1028" d="M178 0v1419h725v-119h-602v-522h557l-24 -114h-533v-545h617v-119h-740z" />
<glyph unicode="F" horiz-adv-x="962" d="M178 0v1419h696v-119h-573v-524h528l-24 -114h-504v-662h-123z" />
<glyph unicode="G" horiz-adv-x="1503" d="M115 705q0 319 196 530t551 211q224 0 422 -72l-33 -112q-190 63 -389 63q-303 0 -462 -175q-158 -174 -158 -445q0 -258 164 -436q164 -177 423 -177q198 0 404 94v461l123 49v-579q-254 -144 -527 -144q-307 0 -511 213q-203 212 -203 519z" />
<glyph unicode="H" horiz-adv-x="1333" d="M178 0v1419h123v-641h731v641h123v-1419h-123v659h-731v-659h-123z" />
<glyph unicode="I" horiz-adv-x="479" d="M178 0v1419h123v-1419h-123z" />
<glyph unicode="J" horiz-adv-x="966" d="M66 45l36 115q147 -68 273 -68q301 0 301 365v962h123v-989q0 -220 -116 -339q-115 -118 -308 -118q-153 0 -309 72z" />
<glyph unicode="K" horiz-adv-x="1206" d="M178 0v1419h123v-891l649 891h140l-459 -628l510 -791h-144l-442 686l-254 -348v-338h-123z" />
<glyph unicode="L" horiz-adv-x="991" d="M178 0v1419l123 25v-1325h604v-119h-727z" />
<glyph unicode="M" horiz-adv-x="1708" d="M86 0l199 1419h157l344 -1063q28 -89 66 -239q48 175 68 239l344 1063h159l199 -1419h-123l-141 1026q-24 169 -29 221q-48 -167 -67 -221l-330 -1014h-158l-330 1014q-49 154 -67 219q-12 -111 -27 -219l-141 -1026h-123z" />
<glyph unicode="N" horiz-adv-x="1394" d="M178 0v1386l123 33l793 -1206v1206h123v-1419h-123l-793 1202v-1202h-123z" />
<glyph unicode="O" horiz-adv-x="1630" d="M115 705q0 310 197 525q198 216 503 216t503 -216t198 -525t-198 -520q-198 -212 -503 -212t-503 212q-197 210 -197 520zM242 705q0 -263 158 -437q159 -176 415 -176q255 0 414 176q160 177 160 437q0 256 -160 440q-158 182 -414 182q-255 0 -414 -181 q-159 -182 -159 -441z" />
<glyph unicode="P" horiz-adv-x="1097" d="M178 0v1419h381q217 0 335 -112t118 -306q0 -190 -125 -306q-124 -115 -340 -115h-246v-580h-123zM301 694h223q361 0 361 307q0 148 -82 224q-81 75 -268 75h-234v-606z" />
<glyph unicode="Q" horiz-adv-x="1630" d="M115 705q0 310 197 525q198 216 503 216t503 -216t198 -525q0 -263 -147 -459q-147 -197 -386 -252l88 -348l-125 -29l-90 358q-20 -2 -41 -2q-305 0 -503 212q-197 210 -197 520zM242 705q0 -263 158 -437q159 -176 415 -176q255 0 414 176q160 177 160 437 q0 256 -160 440q-158 182 -414 182q-255 0 -414 -181q-159 -182 -159 -441z" />
<glyph unicode="R" horiz-adv-x="1107" d="M178 0v1419h381q217 0 335 -112t118 -306q0 -154 -88 -263q-88 -110 -234 -144l311 -594h-133l-305 582h-262v-582h-123zM301 694h223q361 0 361 307q0 147 -83 224q-81 75 -267 75h-234v-606z" />
<glyph unicode="S" horiz-adv-x="1021" d="M78 76l37 110q197 -94 350 -94q141 0 232 72t91 186q0 104 -68 172q-70 70 -166 113q-88 39 -196 90q-97 45 -167 134q-68 86 -68 214q0 181 122 277q121 96 283 96q157 0 332 -74l-41 -110q-155 65 -291 65q-129 0 -204 -70q-74 -69 -74 -184q0 -97 68 -164t166 -112 q78 -36 196 -95q97 -49 167 -138q68 -87 68 -214q0 -169 -128 -273t-322 -104q-179 0 -387 103z" />
<glyph unicode="T" horiz-adv-x="1105" d="M76 1300v119h954v-119h-416v-1300h-122v1300h-416z" />
<glyph unicode="U" horiz-adv-x="1339" d="M147 512v907h123v-887q0 -199 103 -320q102 -120 297 -120q192 0 296 119q103 118 103 321v887h123v-907q0 -233 -143 -385q-145 -154 -379 -154q-238 0 -380 153q-143 154 -143 386z" />
<glyph unicode="V" horiz-adv-x="1226" d="M55 1419h127l363 -1079q25 -74 67 -219q18 57 34.5 108t25.5 79t10 32l362 1079h127l-479 -1419h-157z" />
<glyph unicode="W" horiz-adv-x="1759" d="M86 1419h123l215 -1026q25 -125 41 -229q6 19 78 231l260 740h153l261 -740q32 -95 75 -233q25 132 43 231l215 1026h123l-297 -1419h-141l-283 803q-40 110 -73 221q-33 -111 -72 -221l-283 -803h-141z" />
<glyph unicode="X" horiz-adv-x="1236" d="M66 0l473 731l-445 688h148l374 -581l379 581h144l-447 -686l479 -733h-147l-408 627l-407 -627h-143z" />
<glyph unicode="Y" horiz-adv-x="1206" d="M66 1419h133l405 -708l404 708h133l-475 -833v-586h-127v586z" />
<glyph unicode="Z" horiz-adv-x="1105" d="M98 0v98l721 1202h-702v119h860v-98l-721 -1202h752v-119h-910z" />
<glyph unicode="[" horiz-adv-x="573" d="M221 -375v1983h289v-113h-170v-1759h170v-111h-289z" />
<glyph unicode="\" horiz-adv-x="868" d="M123 1495h119l503 -1694h-120z" />
<glyph unicode="]" horiz-adv-x="573" d="M63 -264h170v1759h-170v113h289v-1983h-289v111z" />
<glyph unicode="^" horiz-adv-x="1116" d="M197 780l305 639h121l305 -639h-119l-248 525l-246 -525h-118z" />
<glyph unicode="_" horiz-adv-x="1024" d="M0 -172h1024v-111h-1024v111z" />
<glyph unicode="`" horiz-adv-x="481" d="M115 1470h145l107 -288h-111z" />
<glyph unicode="a" d="M106 508q0 223 137 378q136 154 343 154q230 0 360 -188v162l119 -21v-993h-88l-21 180q-130 -207 -370 -207q-211 0 -345 155q-135 156 -135 380zM229 508q0 -185 104 -303q103 -117 253 -117q149 0 257 117q107 116 107 305q0 188 -107 301q-109 115 -257 115 q-145 0 -251 -115t-106 -303z" />
<glyph unicode="b" d="M158 0v1473l118 45v-666q127 188 361 188q207 0 343 -154t136 -378q0 -225 -134 -380t-345 -155q-243 0 -371 207l-20 -180h-88zM272 510q0 -188 108 -305t257 -117t253 117q103 116 103 303q0 189 -105 303q-106 115 -251 115q-148 0 -257 -115q-108 -114 -108 -301z " />
<glyph unicode="c" horiz-adv-x="1052" d="M106 508q0 225 142 379q141 153 379 153q173 0 340 -69l-37 -107q-154 62 -303 62q-188 0 -295 -122t-107 -296q0 -173 107 -297q106 -123 293 -123q126 0 301 68l39 -111q-151 -72 -338 -72q-237 0 -379 154t-142 381z" />
<glyph unicode="d" d="M106 508q0 223 137 378q136 154 343 154q230 0 360 -188v639h119v-1491h-88l-21 180q-128 -207 -370 -207q-211 0 -345 155q-135 156 -135 380zM229 508q0 -185 104 -303q103 -117 253 -117q149 0 257 117q107 116 107 305q0 188 -107 301q-109 115 -257 115 q-145 0 -251 -115t-106 -303z" />
<glyph unicode="e" horiz-adv-x="1122" d="M106 506q0 225 134 380q133 154 338 154q226 0 336 -149q112 -151 112 -379h-801q0 -183 104 -304q103 -120 283 -120q142 0 301 62l23 -115q-148 -62 -324 -62q-229 0 -367 153q-139 154 -139 380zM236 614h665q-21 160 -105 235q-86 77 -218 77q-127 0 -221 -80 q-92 -79 -121 -232z" />
<glyph unicode="f" horiz-adv-x="604" d="M25 911v103h168v192q0 153 85 232q86 80 232 80q74 0 154 -23l-25 -111q-63 19 -119 19q-111 0 -160 -52t-49 -157v-180h277v-103h-277v-911h-118v911h-168z" />
<glyph unicode="g" d="M106 518q0 216 137 370q136 152 343 152q230 0 360 -184v158l119 -21v-1003q0 -204 -134 -335q-133 -130 -349 -130q-186 0 -330 67l35 105q131 -57 295 -57q176 0 270 101t94 273v170q-130 -184 -360 -184q-212 0 -345 150q-135 152 -135 368zM229 518q0 -180 104 -292 q103 -111 253 -111q152 0 258 110t106 295q0 184 -106 294q-107 112 -258 112q-146 0 -252 -112q-105 -111 -105 -296z" />
<glyph unicode="h" horiz-adv-x="1120" d="M158 0v1468l118 50v-680q108 202 357 202q155 0 247 -104q93 -105 93 -281v-655h-119v625q0 142 -61 221q-62 80 -179 80q-149 0 -243 -118q-95 -119 -95 -329v-479h-118z" />
<glyph unicode="i" horiz-adv-x="434" d="M131 1354q0 34 24 58t62 24q35 0 61 -24q25 -24 25 -58q0 -36 -25 -60q-26 -24 -61 -24q-37 0 -61 24q-25 25 -25 60zM158 0v1014h118v-1014h-118z" />
<glyph unicode="j" horiz-adv-x="434" d="M-195 -451l25 111q63 -20 119 -20q110 0 160 53q49 52 49 157v1164h118v-1176q0 -151 -86 -232t-231 -81q-65 0 -154 24zM131 1354q0 34 24 58t62 24q35 0 61 -24q25 -24 25 -58q0 -36 -25 -60q-26 -24 -61 -24q-37 0 -61 24q-25 25 -25 60z" />
<glyph unicode="k" horiz-adv-x="974" d="M158 0v1473l118 45v-1020l437 516h145l-338 -398l420 -616h-139l-359 524l-166 -194v-330h-118z" />
<glyph unicode="l" horiz-adv-x="448" d="M158 143v1325l118 50v-1344q0 -94 89 -94l-21 -105q-84 0 -135 42t-51 126z" />
<glyph unicode="m" horiz-adv-x="1710" d="M158 0v993l98 21l16 -164q102 190 320 190q226 0 303 -215q99 215 340 215q152 0 240 -101t88 -277v-662h-119v631q0 295 -227 295q-125 0 -211 -111q-86 -112 -86 -326v-489h-119v631q0 295 -228 295q-122 0 -209 -110q-88 -111 -88 -314v-502h-118z" />
<glyph unicode="n" horiz-adv-x="1120" d="M158 0v993l98 21l18 -180q107 206 359 206q155 0 247 -104q93 -105 93 -281v-655h-119v625q0 142 -61 221q-62 80 -179 80q-149 0 -243 -118q-95 -119 -95 -329v-479h-118z" />
<glyph unicode="o" horiz-adv-x="1228" d="M106 506q0 222 145 379q143 155 363 155q221 0 364 -155q144 -156 144 -379q0 -224 -144 -378q-144 -155 -364 -155q-219 0 -363 155q-145 156 -145 378zM229 506q0 -176 108 -297t277 -121q173 0 279 121t106 297q0 177 -106 298q-107 122 -279 122q-169 0 -277 -122 t-108 -298z" />
<glyph unicode="p" d="M158 -449v1442l88 21l18 -183q129 209 373 209q212 0 345 -154q134 -155 134 -380q0 -224 -136 -378q-137 -155 -343 -155q-233 0 -361 187v-609h-118zM272 504q0 -187 108 -301q109 -115 257 -115q145 0 251 115q105 114 105 303q0 187 -103 303q-104 117 -253 117 t-257 -117t-108 -305z" />
<glyph unicode="q" d="M106 506q0 224 135 380q133 154 345 154q242 0 370 -206l21 180l88 -21v-1392l-119 -50v609q-130 -187 -360 -187q-206 0 -343 155t-137 378zM229 506q0 -188 106 -303t251 -115q148 0 257 115q107 113 107 301q0 189 -107 305q-108 117 -257 117q-150 0 -253 -117 q-104 -118 -104 -303z" />
<glyph unicode="r" horiz-adv-x="684" d="M158 0v993l98 21l18 -187q123 213 373 213v-114q-161 0 -266 -127t-105 -301v-498h-118z" />
<glyph unicode="s" horiz-adv-x="790" d="M84 51l37 109q144 -72 256 -72q87 0 148 50t61 122q0 64 -48 108q-47 43 -117 73q-59 26 -136 65q-68 35 -116 98t-48 156q0 136 90 208t213 72q116 0 254 -61l-37 -105q-125 52 -217 52q-83 0 -132 -47q-48 -47 -48 -119q0 -62 48 -106q49 -44 116 -74q36 -16 136 -66 q67 -34 116 -99q49 -66 49 -155q0 -128 -94 -208q-92 -79 -238 -79q-134 0 -293 78z" />
<glyph unicode="t" horiz-adv-x="684" d="M45 911v103h145v258l119 53v-311h252v-103h-252v-614q0 -209 189 -209q58 0 118 18l25 -110q-81 -23 -154 -23q-133 0 -215 81t-82 231v626h-145z" />
<glyph unicode="u" horiz-adv-x="1120" d="M147 358v656h119v-625q0 -141 62 -221t178 -80q149 0 243 118q95 119 95 329v479h119v-1014h-99l-18 178q-106 -205 -359 -205q-153 0 -246 105q-94 106 -94 280z" />
<glyph unicode="v" horiz-adv-x="974" d="M45 1014h125l244 -672q24 -62 73 -227q37 129 74 227l244 672h125l-367 -1014h-151z" />
<glyph unicode="w" horiz-adv-x="1472" d="M55 1014h121l195 -672q25 -93 55 -221q2 6 7.5 30.5t9.5 42.5q15 60 21 85q3 13 17 63l183 672h145l182 -672q11 -38 53 -221q40 162 58 221l194 672h121l-293 -1014h-149l-182 670q-36 139 -58 229q-20 -99 -55 -229l-182 -670h-150z" />
<glyph unicode="x" horiz-adv-x="937" d="M43 0l352 539l-309 475h141l242 -375l244 375h137l-309 -471l352 -543h-137l-289 444l-291 -444h-133z" />
<glyph unicode="y" horiz-adv-x="950" d="M25 -436l34 108q71 -32 154 -32q117 0 166 151l67 209h-40l-357 1014h125l258 -748q22 -68 51 -168q19 73 49 168l242 748h125l-416 -1276q-35 -108 -106 -160q-73 -53 -164 -53q-104 0 -188 39z" />
<glyph unicode="z" horiz-adv-x="884" d="M96 0v86l520 813h-493v115h647v-86l-520 -813h538v-115h-692z" />
<glyph unicode="{" horiz-adv-x="757" d="M156 559v115q76 0 134 47q56 46 56 147v412q0 326 283 328v-111q-98 0 -132 -49t-34 -168v-412q0 -97 -34 -153q-36 -59 -124 -99q89 -40 124 -98q34 -56 34 -153v-412q0 -119 34 -168t132 -49v-111q-283 2 -283 328v412q0 101 -56 147q-58 47 -134 47z" />
<glyph unicode="|" horiz-adv-x="468" d="M178 -203v1778h113v-1778h-113z" />
<glyph unicode="}" horiz-adv-x="757" d="M129 -264q98 0 132 49t34 168v412q0 97 34 153q35 58 124 98q-88 40 -124 99q-34 56 -34 153v412q0 119 -34 168t-132 49v111q283 -2 283 -328v-412q0 -101 56 -147q58 -47 134 -47v-115q-76 0 -134 -47q-56 -46 -56 -147v-412q0 -326 -283 -328v111z" />
<glyph unicode="~" horiz-adv-x="1128" d="M184 1178q0 124 59 195t160 71q57 0 119 -44q53 -38 114 -88q53 -44 89 -44q58 0 79 39t21 112h119q0 -125 -58 -195q-59 -71 -161 -71q-57 0 -119 44q-46 33 -113 88q-53 44 -90 44q-57 0 -78 -39q-22 -41 -22 -112h-119z" />
<glyph unicode="&#xa1;" horiz-adv-x="542" d="M176 1114q0 38 27 65t65 27q40 0 67 -27t27 -65q0 -40 -26 -63q-28 -25 -68 -25q-37 0 -65 25q-27 24 -27 63zM209 -238v1059h119v-1059h-119z" />
<glyph unicode="&#xa2;" horiz-adv-x="1124" d="M121 508q0 207 121 355q122 149 329 173v232h119v-230q140 -6 291 -67l-37 -107q-154 62 -303 62q-188 0 -295 -122q-106 -121 -106 -296t106 -297q106 -123 293 -123q126 0 301 68l39 -111q-137 -64 -289 -70v-229h-119v231q-207 22 -329 171q-121 148 -121 360z" />
<glyph unicode="&#xa3;" horiz-adv-x="1062" d="M125 561v103h174q-1 8 -12 50q-4 14 -8.5 32.5t-6.5 24.5q-5 20 -12 55q-8 42 -11 67q-3 27 -6 68q-3 39 -3 77q0 187 117 297q118 111 307 111q138 0 307 -74l-37 -108q-139 65 -270 65q-147 0 -224 -80q-75 -78 -75 -211q0 -42 3 -83q3 -40 12 -88q11 -56 12 -65 q1 -5 19 -76q15 -58 15 -62h350v-103h-332q7 -44 7 -72q0 -112 -44 -211q-43 -96 -106 -159h660v-119h-805v115q68 66 117 166q51 104 51 219q0 16 -5 61h-194z" />
<glyph unicode="&#xa4;" horiz-adv-x="1036" d="M135 227l113 113q-55 83 -55 184q0 102 57 185l-115 116l84 84l115 -116q84 59 186 59t182 -57l115 114l84 -84l-113 -112q60 -86 60 -189q0 -100 -60 -186l113 -111l-84 -84l-112 111q-83 -57 -185 -57q-107 0 -188 59l-113 -113zM301 524q0 -89 65 -154t154 -65 q90 0 155 65q64 64 64 154q0 91 -64 155t-155 64q-90 0 -154 -64q-65 -65 -65 -155z" />
<glyph unicode="&#xa5;" horiz-adv-x="1107" d="M51 1419h133l369 -700l371 700h133l-408 -770h269v-102h-302v-197h302v-102h-302v-248h-127v248h-301v102h301v197h-301v102h269z" />
<glyph unicode="&#xa6;" horiz-adv-x="468" d="M178 -203v656h113v-656h-113zM178 920v655h113v-655h-113z" />
<glyph unicode="&#xa7;" horiz-adv-x="1093" d="M135 -84l31 113q138 -68 285 -68q108 0 172 50q63 49 63 141q0 80 -53 133t-130 86q-114 49 -154 68q-78 37 -130 105q-53 70 -53 169q0 190 164 270q-41 64 -41 156q0 137 91 222t234 85q146 0 273 -57l-27 -111q-116 49 -237 49q-205 0 -205 -188q0 -70 53 -120 q52 -49 130 -84q89 -40 154 -72q77 -38 130 -110q53 -73 53 -175q0 -183 -166 -267q43 -68 43 -159q0 -136 -103 -223q-104 -87 -255 -87q-165 0 -322 74zM295 713q0 -78 58 -127t170 -99t161 -84q125 44 125 175q0 86 -55 138q-54 51 -170 100q-113 48 -158 77 q-131 -33 -131 -180z" />
<glyph unicode="&#xa8;" horiz-adv-x="798" d="M131 1323q0 41 29 70q28 28 69 28q42 0 69 -28q28 -30 28 -70q0 -41 -29 -70q-28 -28 -68 -28q-41 0 -69 28q-29 29 -29 70zM473 1323q0 40 28 70q27 28 68 28q42 0 70 -28q29 -29 29 -70t-29 -70q-28 -28 -70 -28q-39 0 -67 28q-29 29 -29 70z" />
<glyph unicode="&#xa9;" horiz-adv-x="1550" d="M115 684q0 292 185 487q186 197 476 197t475 -197t185 -487t-185 -486t-475 -196q-289 0 -476 196q-185 194 -185 486zM227 684q0 -244 153 -409q152 -164 396 -164t395 164q152 166 152 409q0 242 -152 409t-395 167t-396 -167t-153 -409zM420 684q0 159 95 265t263 106 q100 0 211 -43l-28 -86q-93 37 -183 37q-126 0 -192 -79q-66 -80 -66 -200q0 -119 66 -197q65 -77 192 -77q94 0 189 43l26 -93q-107 -43 -215 -43q-168 0 -263 104t-95 263z" />
<glyph unicode="&#xaa;" horiz-adv-x="884" d="M102 1044q0 155 96 266q94 109 240 109q156 0 242 -125v107l102 -15v-700h-80l-14 117q-88 -135 -250 -135q-147 0 -241 109q-95 110 -95 267zM207 1044q0 -124 67 -203t168 -79q103 0 173 79q71 80 71 206q0 125 -72 201q-72 77 -172 77q-98 0 -167 -78 q-68 -77 -68 -203z" />
<glyph unicode="&#xab;" horiz-adv-x="960" d="M143 530l265 379l96 -67l-217 -312l217 -311l-96 -67zM457 530l264 379l96 -67l-219 -312l219 -311l-96 -67z" />
<glyph unicode="&#xac;" horiz-adv-x="1310" d="M209 467v119h878v-443h-116v324h-762z" />
<glyph unicode="&#xad;" horiz-adv-x="0" />
<glyph unicode="&#xae;" horiz-adv-x="1550" d="M115 684q0 292 185 487q186 197 476 197t475 -197t185 -487t-185 -486t-475 -196q-289 0 -476 196q-185 194 -185 486zM227 684q0 -244 153 -409q152 -164 396 -164t395 164q152 166 152 409q0 242 -152 409t-395 167t-396 -167t-153 -409zM559 348v703h199 q121 0 181 -60t60 -162q0 -73 -36 -128t-109 -78l137 -275h-104l-129 264h-101v-264h-98zM657 698h95q147 0 147 131q0 129 -147 129h-95v-260z" />
<glyph unicode="&#xaf;" horiz-adv-x="749" d="M106 1274v112h537v-112h-537z" />
<glyph unicode="&#xb0;" horiz-adv-x="724" d="M115 1176q0 105 72 177t175 72q105 0 177 -72q71 -71 71 -177q0 -107 -71 -178q-72 -72 -177 -72q-103 0 -175 72t-72 178zM209 1176q0 -66 45 -111t108 -45q64 0 109 45t45 111q0 65 -45 110t-109 45q-63 0 -108 -45t-45 -110z" />
<glyph unicode="&#xb1;" horiz-adv-x="1232" d="M176 14h881v-118h-881v118zM176 467v119h381v332h119v-332h381v-119h-381v-332h-119v332h-381z" />
<glyph unicode="&#xb4;" horiz-adv-x="481" d="M115 1182l106 288h146l-142 -288h-110z" />
<glyph unicode="&#xb5;" horiz-adv-x="1120" d="M158 -449v1463h118v-606q0 -136 75 -228t214 -92t214 92q75 91 75 228v606h119v-629q0 -173 -112 -293q-111 -119 -296 -119q-176 0 -289 113v-535h-118z" />
<glyph unicode="&#xb6;" horiz-adv-x="1134" d="M96 1018q0 167 116 285q115 116 280 116h495v-1566h-119v1450h-235v-1450h-119v765q-180 0 -299 116t-119 284z" />
<glyph unicode="&#xb7;" horiz-adv-x="473" d="M139 524q0 40 28 70q27 29 69 29q40 0 69 -29t29 -70q0 -40 -29 -69t-69 -29q-39 0 -68 29t-29 69z" />
<glyph unicode="&#xb8;" horiz-adv-x="634" d="M139 -438l21 86q63 -27 123 -27q54 0 82 26q26 25 26 56t-26 53q-28 23 -82 23q-36 0 -95 -10l37 231h101l-21 -143q189 0 189 -156q0 -73 -54 -124q-53 -50 -153 -50q-81 0 -148 35z" />
<glyph unicode="&#xba;" horiz-adv-x="925" d="M102 1042q0 155 103 267q101 110 258 110t258 -110q102 -111 102 -267t-102 -265t-258 -109q-157 0 -259 109t-102 265zM207 1042q0 -118 72 -199t184 -81t184 81t72 199q0 121 -72 202t-184 81q-111 0 -183 -82q-73 -84 -73 -201z" />
<glyph unicode="&#xbb;" horiz-adv-x="960" d="M143 217l219 311l-219 312l97 67l264 -379l-264 -378zM457 217l219 311l-219 312l96 67l264 -379l-264 -378z" />
<glyph unicode="&#xbf;" horiz-adv-x="1032" d="M168 92q0 80 34 152t81 133q68 87 94 123q46 62 81 146q34 81 34 175h120q0 -124 -50 -236t-110 -178q-63 -69 -111 -148q-50 -82 -50 -153q0 -97 63 -162t187 -65q126 0 272 88l55 -104q-176 -103 -325 -103q-176 0 -276 103q-99 102 -99 229zM457 1141q0 36 27 63 t67 27t67 -27t27 -63q0 -39 -27 -65q-26 -25 -67 -25t-67 25q-27 26 -27 65z" />
<glyph unicode="&#xc0;" horiz-adv-x="1247" d="M66 0l479 1419h157l480 -1419h-125l-154 457h-559l-154 -457h-124zM383 571h481l-172 508q-6 18 -69 221q-35 -120 -68 -221zM432 1845h146l106 -289h-111z" />
<glyph unicode="&#xc1;" horiz-adv-x="1247" d="M66 0l479 1419h157l480 -1419h-125l-154 457h-559l-154 -457h-124zM383 571h481l-172 508q-6 18 -69 221q-35 -120 -68 -221zM571 1556l107 289h145l-141 -289h-111z" />
<glyph unicode="&#xc2;" horiz-adv-x="1247" d="M66 0l479 1419h157l480 -1419h-125l-154 457h-559l-154 -457h-124zM360 1556l197 289h133l197 -289h-146l-118 203l-117 -203h-146zM383 571h481l-172 508q-6 18 -69 221q-35 -120 -68 -221z" />
<glyph unicode="&#xc3;" horiz-adv-x="1247" d="M66 0l479 1419h157l480 -1419h-125l-154 457h-559l-154 -457h-124zM354 1712q68 90 158 90q53 0 123 -41t98 -41q50 0 103 62l55 -82q-67 -90 -158 -90q-51 0 -122 41t-99 41q-49 0 -102 -62zM383 571h481l-172 508q-6 18 -69 221q-35 -120 -68 -221z" />
<glyph unicode="&#xc4;" horiz-adv-x="1247" d="M66 0l479 1419h157l480 -1419h-125l-154 457h-559l-154 -457h-124zM354 1698q0 40 29 69t70 29t68 -29q28 -30 28 -69q0 -41 -29 -70t-67 -29q-41 0 -70 29t-29 70zM383 571h481l-172 508q-6 18 -69 221q-35 -120 -68 -221zM696 1698q0 39 28 69q27 29 69 29q40 0 69 -29 t29 -69q0 -41 -29 -70t-69 -29q-39 0 -68 29t-29 70z" />
<glyph unicode="&#xc5;" horiz-adv-x="1247" d="M66 0l479 1419h157l480 -1419h-125l-154 457h-559l-154 -457h-124zM383 571h481l-172 508q-6 18 -69 221q-35 -120 -68 -221zM440 1702q0 76 55 129t130 53q76 0 129 -53t53 -129t-53 -129t-129 -53q-75 0 -130 53t-55 129zM535 1702q0 -40 26 -66t64 -26t64 26 q28 28 28 66q0 36 -28 64t-64 28t-64 -28q-26 -26 -26 -64z" />
<glyph unicode="&#xc6;" horiz-adv-x="1845" d="M66 0l702 1419h745l21 -119h-569l88 -524h553l20 -114h-551l94 -543h588l23 -119h-713l-80 457h-565l-223 -457h-133zM479 571h488l-129 729z" />
<glyph unicode="&#xc7;" horiz-adv-x="1325" d="M115 709q0 318 187 527q188 210 519 210q211 0 396 -72l-31 -110q-177 61 -365 61q-283 0 -431 -174q-148 -173 -148 -442q0 -270 148 -442q149 -173 431 -173q164 0 363 70l33 -119q-183 -67 -390 -72l-16 -116q188 0 188 -156q0 -74 -53 -124t-153 -50q-81 0 -148 35 l21 86q63 -27 122 -27q54 0 82 26q27 25 27 56t-27 53q-28 23 -82 23q-35 0 -94 -10l33 208q-291 30 -452 235q-160 203 -160 497z" />
<glyph unicode="&#xc8;" horiz-adv-x="1028" d="M178 0v1419h725v-119h-602v-522h557l-24 -114h-533v-545h617v-119h-740zM387 1845h145l107 -289h-111z" />
<glyph unicode="&#xc9;" horiz-adv-x="1028" d="M178 0v1419h725v-119h-602v-522h557l-24 -114h-533v-545h617v-119h-740zM463 1556l106 289h146l-142 -289h-110z" />
<glyph unicode="&#xca;" horiz-adv-x="1028" d="M178 0v1419h725v-119h-602v-522h557l-24 -114h-533v-545h617v-119h-740zM283 1556l196 289h133l197 -289h-145l-119 203l-117 -203h-145z" />
<glyph unicode="&#xcb;" horiz-adv-x="1028" d="M178 0v1419h725v-119h-602v-522h557l-24 -114h-533v-545h617v-119h-740zM281 1698q0 41 28 69q29 29 70 29t68 -29q28 -30 28 -69q0 -41 -29 -70t-67 -29q-41 0 -70 29q-28 28 -28 70zM623 1698q0 40 27 69t69 29q40 0 69 -29t29 -69q0 -41 -29 -70t-69 -29q-39 0 -68 29 q-28 28 -28 70z" />
<glyph unicode="&#xcc;" horiz-adv-x="479" d="M47 1845h146l106 -289h-111zM178 0v1419h123v-1419h-123z" />
<glyph unicode="&#xcd;" horiz-adv-x="479" d="M178 0v1419h123v-1419h-123zM188 1556l107 289h145l-141 -289h-111z" />
<glyph unicode="&#xce;" horiz-adv-x="479" d="M-23 1556l197 289h133l197 -289h-146l-118 203l-117 -203h-146zM178 0v1419h123v-1419h-123z" />
<glyph unicode="&#xcf;" horiz-adv-x="479" d="M-29 1698q0 40 29 69t70 29t68 -29q28 -30 28 -69q0 -41 -29 -70t-67 -29q-41 0 -70 29t-29 70zM178 0v1419h123v-1419h-123zM313 1698q0 39 28 69q27 29 69 29q40 0 69 -29t29 -69q0 -41 -29 -70t-69 -29q-39 0 -68 29t-29 70z" />
<glyph unicode="&#xd0;" horiz-adv-x="1413" d="M31 672v102h147v645h465q317 0 484 -201q167 -202 167 -513q0 -312 -166 -508q-167 -197 -485 -197h-465v672h-147zM301 119h320q149 0 259 48t170 132q61 86 89 185q28 100 28 221q0 123 -28 223q-28 102 -89 188q-60 85 -170 135q-108 49 -259 49h-320v-526h365v-102 h-365v-553z" />
<glyph unicode="&#xd1;" horiz-adv-x="1394" d="M178 0v1386l123 33l793 -1206v1206h123v-1419h-123l-793 1202v-1202h-123zM428 1712q67 90 158 90q53 0 123 -41t98 -41q49 0 102 62l56 -82q-68 -90 -158 -90q-51 0 -122 41t-99 41q-50 0 -103 -62z" />
<glyph unicode="&#xd2;" horiz-adv-x="1630" d="M115 705q0 310 197 525q198 216 503 216t503 -216t198 -525t-198 -520q-198 -212 -503 -212t-503 212q-197 210 -197 520zM242 705q0 -263 158 -437q159 -176 415 -176q255 0 414 176q160 177 160 437q0 256 -160 440q-158 182 -414 182q-255 0 -414 -181 q-159 -182 -159 -441zM618 1845h146l106 -289h-110z" />
<glyph unicode="&#xd3;" horiz-adv-x="1630" d="M115 705q0 310 197 525q198 216 503 216t503 -216t198 -525t-198 -520q-198 -212 -503 -212t-503 212q-197 210 -197 520zM242 705q0 -263 158 -437q159 -176 415 -176q255 0 414 176q160 177 160 437q0 256 -160 440q-158 182 -414 182q-255 0 -414 -181 q-159 -182 -159 -441zM748 1556l106 289h145l-141 -289h-110z" />
<glyph unicode="&#xd4;" horiz-adv-x="1630" d="M115 705q0 310 197 525q198 216 503 216t503 -216t198 -525t-198 -520q-198 -212 -503 -212t-503 212q-197 210 -197 520zM242 705q0 -263 158 -437q159 -176 415 -176q255 0 414 176q160 177 160 437q0 256 -160 440q-158 182 -414 182q-255 0 -414 -181 q-159 -182 -159 -441zM553 1556l197 289h133l196 -289h-145l-119 203l-117 -203h-145z" />
<glyph unicode="&#xd5;" horiz-adv-x="1630" d="M115 705q0 310 197 525q198 216 503 216t503 -216t198 -525t-198 -520q-198 -212 -503 -212t-503 212q-197 210 -197 520zM242 705q0 -263 158 -437q159 -176 415 -176q255 0 414 176q160 177 160 437q0 256 -160 440q-158 182 -414 182q-255 0 -414 -181 q-159 -182 -159 -441zM547 1712q67 90 158 90q52 0 122 -41t99 -41q49 0 102 62l55 -82q-67 -90 -157 -90q-51 0 -122 41t-99 41q-50 0 -103 -62z" />
<glyph unicode="&#xd6;" horiz-adv-x="1630" d="M115 705q0 310 197 525q198 216 503 216t503 -216t198 -525t-198 -520q-198 -212 -503 -212t-503 212q-197 210 -197 520zM242 705q0 -263 158 -437q159 -176 415 -176q255 0 414 176q160 177 160 437q0 256 -160 440q-158 182 -414 182q-255 0 -414 -181 q-159 -182 -159 -441zM547 1698q0 41 28 69q29 29 70 29q42 0 69 -29t27 -69q0 -42 -28 -70q-29 -29 -68 -29q-41 0 -70 29q-28 28 -28 70zM889 1698q0 40 27 69t69 29q41 0 70 -29q28 -28 28 -69q0 -42 -28 -70q-29 -29 -70 -29q-38 0 -67 29t-29 70z" />
<glyph unicode="&#xd7;" horiz-adv-x="964" d="M127 260l270 270l-270 271l84 84l270 -271l271 271l84 -84l-271 -271l271 -270l-84 -84l-271 270l-270 -270z" />
<glyph unicode="&#xd8;" horiz-adv-x="1630" d="M115 705q0 310 197 525q198 216 503 216q212 0 387 -119l117 160l80 -57l-119 -164q110 -104 173 -251t63 -310q0 -309 -198 -520q-198 -212 -503 -212q-222 0 -391 115l-121 -166l-80 58l123 170q-231 214 -231 555zM242 705q0 -281 176 -457l715 983q-144 96 -318 96 q-255 0 -414 -181q-159 -182 -159 -441zM496 186q139 -94 319 -94q255 0 414 176q160 177 160 437q0 279 -181 460z" />
<glyph unicode="&#xd9;" horiz-adv-x="1339" d="M147 512v907h123v-887q0 -199 103 -320q102 -120 297 -120q192 0 296 119q103 118 103 321v887h123v-907q0 -233 -143 -385q-145 -154 -379 -154q-238 0 -380 153q-143 154 -143 386zM543 1845h145l107 -289h-111z" />
<glyph unicode="&#xda;" horiz-adv-x="1339" d="M147 512v907h123v-887q0 -199 103 -320q102 -120 297 -120q192 0 296 119q103 118 103 321v887h123v-907q0 -233 -143 -385q-145 -154 -379 -154q-238 0 -380 153q-143 154 -143 386zM598 1556l107 289h145l-141 -289h-111z" />
<glyph unicode="&#xdb;" horiz-adv-x="1339" d="M147 512v907h123v-887q0 -199 103 -320q102 -120 297 -120q192 0 296 119q103 118 103 321v887h123v-907q0 -233 -143 -385q-145 -154 -379 -154q-238 0 -380 153q-143 154 -143 386zM408 1556l196 289h133l197 -289h-146l-118 203l-117 -203h-145z" />
<glyph unicode="&#xdc;" horiz-adv-x="1339" d="M147 512v907h123v-887q0 -199 103 -320q102 -120 297 -120q192 0 296 119q103 118 103 321v887h123v-907q0 -233 -143 -385q-145 -154 -379 -154q-238 0 -380 153q-143 154 -143 386zM401 1698q0 40 29 69t70 29t68 -29q28 -30 28 -69q0 -41 -29 -70t-67 -29 q-41 0 -70 29t-29 70zM743 1698q0 39 28 69q27 29 69 29q40 0 69 -29t29 -69q0 -41 -29 -70t-69 -29q-39 0 -68 29t-29 70z" />
<glyph unicode="&#xdd;" horiz-adv-x="1206" d="M66 1419h133l405 -708l404 708h133l-475 -833v-586h-127v586zM524 1556l107 289h145l-141 -289h-111z" />
<glyph unicode="&#xde;" horiz-adv-x="1097" d="M178 0v1419h123v-202h246q215 0 340 -114t125 -304q0 -188 -130 -305t-347 -117h-234v-377h-123zM301 492h201q198 0 290 85q93 85 93 222q0 299 -373 299h-211v-606z" />
<glyph unicode="&#xdf;" horiz-adv-x="1142" d="M25 911v103h168v182q0 154 86 238q85 84 231 84q144 0 235 -86t91 -238q0 -69 -38 -131q-36 -60 -82 -99q-43 -37 -82 -93q-38 -55 -38 -111q0 -62 48 -107t116 -75q51 -23 136 -67q69 -36 117 -99t48 -154q0 -133 -99 -209q-98 -76 -233 -76q-147 0 -293 82l37 111 q151 -78 256 -78q86 0 148 47q61 46 61 123q0 64 -48 108q-47 43 -117 73q-72 31 -136 64q-70 36 -116 98q-48 65 -48 159q0 74 37 136q36 60 81 99q45 38 81 88q37 50 37 105q0 215 -199 215t-199 -215v-1188h-118v911h-168z" />
<glyph unicode="&#xe0;" d="M106 508q0 223 137 378q136 154 343 154q230 0 360 -188v162l119 -21v-993h-88l-21 180q-130 -207 -370 -207q-211 0 -345 155q-135 156 -135 380zM229 508q0 -185 104 -303q103 -117 253 -117q149 0 257 117q107 116 107 305q0 188 -107 301q-109 115 -257 115 q-145 0 -251 -115t-106 -303zM412 1470h145l107 -288h-111z" />
<glyph unicode="&#xe1;" d="M106 508q0 223 137 378q136 154 343 154q230 0 360 -188v162l119 -21v-993h-88l-21 180q-130 -207 -370 -207q-211 0 -345 155q-135 156 -135 380zM229 508q0 -185 104 -303q103 -117 253 -117q149 0 257 117q107 116 107 305q0 188 -107 301q-109 115 -257 115 q-145 0 -251 -115t-106 -303zM543 1182l106 288h146l-142 -288h-110z" />
<glyph unicode="&#xe2;" d="M106 508q0 223 137 378q136 154 343 154q230 0 360 -188v162l119 -21v-993h-88l-21 180q-130 -207 -370 -207q-211 0 -345 155q-135 156 -135 380zM229 508q0 -185 104 -303q103 -117 253 -117q149 0 257 117q107 116 107 305q0 188 -107 301q-109 115 -257 115 q-145 0 -251 -115t-106 -303zM348 1182l197 288h133l196 -288h-145l-119 202l-116 -202h-146z" />
<glyph unicode="&#xe3;" d="M106 508q0 223 137 378q136 154 343 154q230 0 360 -188v162l119 -21v-993h-88l-21 180q-130 -207 -370 -207q-211 0 -345 155q-135 156 -135 380zM229 508q0 -185 104 -303q103 -117 253 -117q149 0 257 117q107 116 107 305q0 188 -107 301q-109 115 -257 115 q-145 0 -251 -115t-106 -303zM332 1337q68 90 157 90q50 0 123 -41q71 -40 99 -40q50 0 102 61l55 -82q-68 -90 -157 -90q-51 0 -122 41t-100 41q-49 0 -102 -62z" />
<glyph unicode="&#xe4;" d="M106 508q0 223 137 378q136 154 343 154q230 0 360 -188v162l119 -21v-993h-88l-21 180q-130 -207 -370 -207q-211 0 -345 155q-135 156 -135 380zM229 508q0 -185 104 -303q103 -117 253 -117q149 0 257 117q107 116 107 305q0 188 -107 301q-109 115 -257 115 q-145 0 -251 -115t-106 -303zM322 1323q0 42 28 70t70 28q41 0 68 -28q28 -30 28 -70q0 -41 -29 -70q-28 -28 -67 -28q-42 0 -70 28t-28 70zM664 1323q0 41 27 70q27 28 69 28q41 0 69 -28q29 -29 29 -70t-29 -70q-28 -28 -69 -28q-40 0 -68 28t-28 70z" />
<glyph unicode="&#xe5;" d="M106 508q0 223 137 378q136 154 343 154q230 0 360 -188v162l119 -21v-993h-88l-21 180q-130 -207 -370 -207q-211 0 -345 155q-135 156 -135 380zM229 508q0 -185 104 -303q103 -117 253 -117q149 0 257 117q107 116 107 305q0 188 -107 301q-109 115 -257 115 q-145 0 -251 -115t-106 -303zM428 1327q0 77 54 129q55 53 130 53q77 0 129 -52q54 -54 54 -130q0 -75 -54 -129q-53 -53 -129 -53q-75 0 -130 53q-54 52 -54 129zM522 1327q0 -38 27 -65t63 -27q38 0 65 27q28 28 28 65t-28 65q-27 27 -65 27q-36 0 -63 -27t-27 -65z" />
<glyph unicode="&#xe6;" horiz-adv-x="1880" d="M106 322q0 142 106 218q104 74 284 74h358q-21 147 -103 229q-83 83 -231 83q-142 0 -301 -62l-22 115q146 61 323 61q127 0 237 -64q112 -65 169 -200q60 121 166 193q105 71 243 71q227 0 337 -149q112 -151 112 -379h-801q0 -185 103 -304q104 -120 284 -120 q142 0 301 62l23 -115q-148 -62 -324 -62q-154 0 -272 74q-115 72 -176 199q-55 -129 -164 -201q-108 -72 -242 -72q-186 0 -298 100t-112 249zM225 324q0 -117 78 -177q77 -59 213 -59q152 0 249 101t97 323h-364q-273 0 -273 -188zM993 614h666q-21 159 -106 235 q-86 77 -218 77q-126 0 -220 -80q-93 -80 -122 -232z" />
<glyph unicode="&#xe7;" horiz-adv-x="1052" d="M106 508q0 225 142 379q141 153 379 153q173 0 340 -69l-37 -107q-154 62 -303 62q-188 0 -295 -122t-107 -296q0 -173 107 -297q106 -123 293 -123q126 0 301 68l39 -111q-147 -67 -316 -72l-16 -116q188 0 188 -156q0 -74 -53 -124t-154 -50q-80 0 -147 35l20 86 q63 -27 123 -27q54 0 82 26q27 25 27 56t-27 53q-28 23 -82 23q-35 0 -94 -10l33 211q-205 24 -324 172t-119 356z" />
<glyph unicode="&#xe8;" horiz-adv-x="1122" d="M106 506q0 225 134 380q133 154 338 154q226 0 336 -149q112 -151 112 -379h-801q0 -183 104 -304q103 -120 283 -120q142 0 301 62l23 -115q-148 -62 -324 -62q-229 0 -367 153q-139 154 -139 380zM236 614h665q-21 160 -105 235q-86 77 -218 77q-127 0 -221 -80 q-92 -79 -121 -232zM410 1470h145l107 -288h-111z" />
<glyph unicode="&#xe9;" horiz-adv-x="1122" d="M106 506q0 225 134 380q133 154 338 154q226 0 336 -149q112 -151 112 -379h-801q0 -183 104 -304q103 -120 283 -120q142 0 301 62l23 -115q-148 -62 -324 -62q-229 0 -367 153q-139 154 -139 380zM236 614h665q-21 160 -105 235q-86 77 -218 77q-127 0 -221 -80 q-92 -79 -121 -232zM508 1182l106 288h146l-142 -288h-110z" />
<glyph unicode="&#xea;" horiz-adv-x="1122" d="M106 506q0 225 134 380q133 154 338 154q226 0 336 -149q112 -151 112 -379h-801q0 -183 104 -304q103 -120 283 -120q142 0 301 62l23 -115q-148 -62 -324 -62q-229 0 -367 153q-139 154 -139 380zM236 614h665q-21 160 -105 235q-86 77 -218 77q-127 0 -221 -80 q-92 -79 -121 -232zM303 1182l197 288h133l196 -288h-145l-119 202l-116 -202h-146z" />
<glyph unicode="&#xeb;" horiz-adv-x="1122" d="M106 506q0 225 134 380q133 154 338 154q226 0 336 -149q112 -151 112 -379h-801q0 -183 104 -304q103 -120 283 -120q142 0 301 62l23 -115q-148 -62 -324 -62q-229 0 -367 153q-139 154 -139 380zM236 614h665q-21 160 -105 235q-86 77 -218 77q-127 0 -221 -80 q-92 -79 -121 -232zM297 1323q0 41 29 70q28 28 69 28q42 0 69 -28q28 -30 28 -70q0 -41 -29 -70q-28 -28 -68 -28q-41 0 -69 28q-29 29 -29 70zM639 1323q0 40 28 70q27 28 68 28q42 0 70 -28q29 -29 29 -70t-29 -70q-28 -28 -70 -28q-39 0 -67 28q-29 29 -29 70z" />
<glyph unicode="&#xec;" horiz-adv-x="434" d="M16 1470h146l106 -288h-110zM158 0v1014h118v-1014h-118z" />
<glyph unicode="&#xed;" horiz-adv-x="434" d="M158 0v1014h118v-1014h-118zM162 1182l106 288h146l-142 -288h-110z" />
<glyph unicode="&#xee;" horiz-adv-x="434" d="M-45 1182l197 288h133l196 -288h-145l-119 202l-117 -202h-145zM158 0v1014h118v-1014h-118z" />
<glyph unicode="&#xef;" horiz-adv-x="434" d="M-51 1323q0 42 28 70t70 28t69 -28q27 -29 27 -70q0 -42 -28 -70t-68 -28q-42 0 -70 28t-28 70zM158 0v1014h118v-1014h-118zM291 1323q0 41 27 70q27 28 69 28t70 -28t28 -70t-28 -70t-70 -28q-40 0 -68 28t-28 70z" />
<glyph unicode="&#xf0;" horiz-adv-x="1236" d="M111 481q0 213 145 359q146 147 362 147q161 0 297 -94q-62 154 -174 317l-198 -71l-37 98l174 63q-36 48 -63 83q-32 41 -52 69l103 64q76 -87 137 -170l205 73l37 -98l-181 -66q260 -398 260 -774q0 -211 -144 -359q-144 -149 -364 -149q-219 0 -363 149 q-144 148 -144 359zM233 481q0 -165 108 -279t277 -114q172 0 279 114q107 115 107 279q0 168 -107 280q-107 111 -279 111q-169 0 -277 -111t-108 -280z" />
<glyph unicode="&#xf1;" horiz-adv-x="1120" d="M158 0v993l98 21l18 -180q107 206 359 206q155 0 247 -104q93 -105 93 -281v-655h-119v625q0 142 -61 221q-62 80 -179 80q-149 0 -243 -118q-95 -119 -95 -329v-479h-118zM291 1337q67 90 158 90q52 0 123 -41q70 -40 98 -40q50 0 102 61l55 -82q-68 -90 -157 -90 q-51 0 -122 41t-99 41q-50 0 -103 -62z" />
<glyph unicode="&#xf2;" horiz-adv-x="1228" d="M106 506q0 222 145 379q143 155 363 155q221 0 364 -155q144 -156 144 -379q0 -224 -144 -378q-144 -155 -364 -155q-219 0 -363 155q-145 156 -145 378zM229 506q0 -176 108 -297t277 -121q173 0 279 121t106 297q0 177 -106 298q-107 122 -279 122q-169 0 -277 -122 t-108 -298zM438 1470h146l106 -288h-110z" />
<glyph unicode="&#xf3;" horiz-adv-x="1228" d="M106 506q0 222 145 379q143 155 363 155q221 0 364 -155q144 -156 144 -379q0 -224 -144 -378q-144 -155 -364 -155q-219 0 -363 155q-145 156 -145 378zM229 506q0 -176 108 -297t277 -121q173 0 279 121t106 297q0 177 -106 298q-107 122 -279 122q-169 0 -277 -122 t-108 -298zM547 1182l106 288h146l-142 -288h-110z" />
<glyph unicode="&#xf4;" horiz-adv-x="1228" d="M106 506q0 222 145 379q143 155 363 155q221 0 364 -155q144 -156 144 -379q0 -224 -144 -378q-144 -155 -364 -155q-219 0 -363 155q-145 156 -145 378zM229 506q0 -176 108 -297t277 -121q173 0 279 121t106 297q0 177 -106 298q-107 122 -279 122q-169 0 -277 -122 t-108 -298zM352 1182l197 288h133l197 -288h-146l-119 202l-116 -202h-146z" />
<glyph unicode="&#xf5;" horiz-adv-x="1228" d="M106 506q0 222 145 379q143 155 363 155q221 0 364 -155q144 -156 144 -379q0 -224 -144 -378q-144 -155 -364 -155q-219 0 -363 155q-145 156 -145 378zM229 506q0 -176 108 -297t277 -121q173 0 279 121t106 297q0 177 -106 298q-107 122 -279 122q-169 0 -277 -122 t-108 -298zM346 1337q67 90 158 90q53 0 123 -41q68 -40 98 -40q50 0 102 61l56 -82q-67 -90 -158 -90q-51 0 -122 41t-99 41q-50 0 -103 -62z" />
<glyph unicode="&#xf6;" horiz-adv-x="1228" d="M106 506q0 222 145 379q143 155 363 155q221 0 364 -155q144 -156 144 -379q0 -224 -144 -378q-144 -155 -364 -155q-219 0 -363 155q-145 156 -145 378zM229 506q0 -176 108 -297t277 -121q173 0 279 121t106 297q0 177 -106 298q-107 122 -279 122q-169 0 -277 -122 t-108 -298zM346 1323q0 41 29 70q28 28 69 28q42 0 69 -28q28 -30 28 -70q0 -41 -29 -70q-28 -28 -68 -28q-41 0 -69 28q-29 29 -29 70zM688 1323q0 40 28 70q27 28 68 28q42 0 70 -28q29 -29 29 -70t-29 -70q-28 -28 -70 -28q-39 0 -67 28q-29 29 -29 70z" />
<glyph unicode="&#xf8;" horiz-adv-x="1228" d="M106 506q0 222 145 379q143 155 363 155q149 0 269 -77l123 167l79 -59l-124 -170q161 -157 161 -395q0 -224 -144 -378q-144 -155 -364 -155q-154 0 -270 76l-121 -166l-80 60l123 170q-160 154 -160 393zM229 506q0 -178 107 -297l479 659q-87 58 -201 58 q-169 0 -277 -122t-108 -298zM412 143q89 -55 202 -55q173 0 279 121t106 297q0 178 -108 299z" />
<glyph unicode="&#xf9;" horiz-adv-x="1120" d="M147 358v656h119v-625q0 -141 62 -221t178 -80q149 0 243 118q95 119 95 329v479h119v-1014h-99l-18 178q-106 -205 -359 -205q-153 0 -246 105q-94 106 -94 280zM377 1470h145l107 -288h-111z" />
<glyph unicode="&#xfa;" horiz-adv-x="1120" d="M147 358v656h119v-625q0 -141 62 -221t178 -80q149 0 243 118q95 119 95 329v479h119v-1014h-99l-18 178q-106 -205 -359 -205q-153 0 -246 105q-94 106 -94 280zM487 1182l107 288h145l-141 -288h-111z" />
<glyph unicode="&#xfb;" horiz-adv-x="1120" d="M147 358v656h119v-625q0 -141 62 -221t178 -80q149 0 243 118q95 119 95 329v479h119v-1014h-99l-18 178q-106 -205 -359 -205q-153 0 -246 105q-94 106 -94 280zM293 1182l196 288h134l196 -288h-145l-119 202l-117 -202h-145z" />
<glyph unicode="&#xfc;" horiz-adv-x="1120" d="M147 358v656h119v-625q0 -141 62 -221t178 -80q149 0 243 118q95 119 95 329v479h119v-1014h-99l-18 178q-106 -205 -359 -205q-153 0 -246 105q-94 106 -94 280zM287 1323q0 42 28 70t70 28t69 -28q27 -29 27 -70q0 -42 -28 -70t-68 -28q-42 0 -70 28t-28 70zM629 1323 q0 41 27 70q27 28 69 28t70 -28t28 -70t-28 -70t-70 -28q-40 0 -68 28t-28 70z" />
<glyph unicode="&#xfd;" horiz-adv-x="950" d="M25 -436l34 108q71 -32 154 -32q117 0 166 151l67 209h-40l-357 1014h125l258 -748q22 -68 51 -168q19 73 49 168l242 748h125l-416 -1276q-35 -108 -106 -160q-73 -53 -164 -53q-104 0 -188 39zM401 1182l107 288h145l-141 -288h-111z" />
<glyph unicode="&#xfe;" d="M158 -449v1940h118v-641q127 190 361 190q212 0 345 -154q134 -155 134 -380q0 -224 -136 -378q-137 -155 -343 -155q-233 0 -361 187v-609h-118zM272 504q0 -187 108 -301q109 -115 257 -115q145 0 251 115q105 114 105 303q0 187 -103 303q-104 117 -253 117t-257 -117 t-108 -305z" />
<glyph unicode="&#xff;" horiz-adv-x="950" d="M25 -436l34 108q71 -32 154 -32q117 0 166 151l67 209h-40l-357 1014h125l258 -748q22 -68 51 -168q19 73 49 168l242 748h125l-416 -1276q-35 -108 -106 -160q-73 -53 -164 -53q-104 0 -188 39zM207 1323q0 41 29 70q28 28 69 28q42 0 69 -28q27 -29 27 -70 q0 -42 -28 -70t-68 -28q-41 0 -69 28q-29 29 -29 70zM549 1323q0 40 28 70q27 28 68 28q42 0 70 -28t28 -70t-28 -70t-70 -28q-39 0 -67 28q-29 29 -29 70z" />
<glyph unicode="&#x152;" horiz-adv-x="2240" d="M115 705q0 310 197 525q198 216 503 216q184 0 334 -84t242 -232v289h725v-119h-603v-520h558l-25 -118h-533v-543h617v-119h-739v281q-91 -143 -242 -226q-149 -82 -334 -82q-305 0 -503 212q-197 210 -197 520zM242 705q0 -263 158 -437q159 -176 415 -176 q255 0 414 176q160 177 160 437q0 256 -160 440q-158 182 -414 182q-255 0 -414 -181q-159 -182 -159 -441z" />
<glyph unicode="&#x153;" horiz-adv-x="2017" d="M106 506q0 222 145 379q143 155 363 155q150 0 264 -74q117 -76 179 -202q56 126 167 202q108 74 249 74q226 0 336 -149q112 -151 112 -379h-801q0 -183 104 -304q104 -120 283 -120q142 0 301 62l23 -115q-148 -62 -324 -62q-154 0 -272 74q-116 73 -178 201 q-62 -125 -177 -200q-116 -75 -266 -75q-219 0 -363 155q-145 156 -145 378zM229 506q0 -176 108 -297t277 -121q173 0 279 121t106 297q0 177 -106 298q-107 122 -279 122q-169 0 -277 -122t-108 -298zM1130 614h666q-21 160 -105 235q-86 77 -218 77q-127 0 -221 -80 q-93 -80 -122 -232z" />
<glyph unicode="&#x178;" horiz-adv-x="1206" d="M66 1419h133l405 -708l404 708h133l-475 -833v-586h-127v586zM334 1698q0 41 28 69q29 29 70 29q42 0 69 -29t27 -69q0 -42 -28 -70q-29 -29 -68 -29q-41 0 -70 29q-28 28 -28 70zM676 1698q0 40 27 69t69 29q41 0 70 -29q28 -28 28 -69q0 -42 -28 -70q-29 -29 -70 -29 q-38 0 -67 29t-29 70z" />
<glyph unicode="&#x2c6;" horiz-adv-x="755" d="M115 1182l196 288h133l197 -288h-145l-119 202l-117 -202h-145z" />
<glyph unicode="&#x2dc;" horiz-adv-x="749" d="M106 1337q67 90 158 90q50 0 123 -41q71 -40 98 -40q51 0 103 61l55 -82q-67 -90 -158 -90q-50 0 -121 41t-100 41q-49 0 -102 -62z" />
<glyph unicode="&#x2000;" horiz-adv-x="942" />
<glyph unicode="&#x2001;" horiz-adv-x="1884" />
<glyph unicode="&#x2002;" horiz-adv-x="942" />
<glyph unicode="&#x2003;" horiz-adv-x="1884" />
<glyph unicode="&#x2004;" horiz-adv-x="628" />
<glyph unicode="&#x2005;" horiz-adv-x="471" />
<glyph unicode="&#x2006;" horiz-adv-x="314" />
<glyph unicode="&#x2007;" horiz-adv-x="314" />
<glyph unicode="&#x2008;" horiz-adv-x="235" />
<glyph unicode="&#x2009;" horiz-adv-x="376" />
<glyph unicode="&#x200a;" horiz-adv-x="104" />
<glyph unicode="&#x2010;" horiz-adv-x="905" d="M164 471v115h577v-115h-577z" />
<glyph unicode="&#x2011;" horiz-adv-x="905" d="M164 471v115h577v-115h-577z" />
<glyph unicode="&#x2012;" horiz-adv-x="905" d="M164 471v115h577v-115h-577z" />
<glyph unicode="&#x2013;" horiz-adv-x="1024" d="M0 512v119h1024v-119h-1024z" />
<glyph unicode="&#x2014;" horiz-adv-x="2048" d="M0 512v119h2050v-119h-2050z" />
<glyph unicode="&#x2018;" horiz-adv-x="464" d="M160 1042l121 453l79 -14l-75 -461z" />
<glyph unicode="&#x2019;" horiz-adv-x="464" d="M162 1034l76 461l124 -22l-120 -453z" />
<glyph unicode="&#x201a;" horiz-adv-x="444" d="M123 -297l76 461l125 -23l-121 -452z" />
<glyph unicode="&#x201c;" horiz-adv-x="710" d="M137 1042l121 453l80 -14l-76 -461zM383 1042l121 453l80 -14l-76 -461z" />
<glyph unicode="&#x201d;" horiz-adv-x="710" d="M160 1034l76 461l124 -22l-120 -453zM406 1034l75 461l125 -22l-121 -453z" />
<glyph unicode="&#x201e;" horiz-adv-x="669" d="M123 -297l76 461l125 -23l-121 -452zM369 -297l75 461l125 -23l-120 -452z" />
<glyph unicode="&#x2022;" horiz-adv-x="1007" d="M178 590q0 134 95 231t231 97q135 0 230 -97t95 -231q0 -136 -95 -231t-230 -95q-136 0 -231 95t-95 231z" />
<glyph unicode="&#x2026;" horiz-adv-x="1681" d="M150 70q0 39 27 66q28 28 67 28q35 0 65 -28q29 -27 29 -66q0 -37 -29 -66t-65 -29q-40 0 -67 29q-27 28 -27 66zM786 70q0 39 29 66q30 28 66 28q38 0 66 -28t28 -66q0 -36 -28 -66q-27 -29 -66 -29q-37 0 -66 29t-29 66zM1360 70q0 38 28 66t66 28q36 0 66 -28 q28 -27 28 -66q0 -38 -28 -66q-29 -29 -66 -29q-39 0 -66 29q-28 30 -28 66z" />
<glyph unicode="&#x202f;" horiz-adv-x="376" />
<glyph unicode="&#x2039;" horiz-adv-x="649" d="M143 528l267 379l96 -67l-219 -312l219 -311l-96 -67z" />
<glyph unicode="&#x203a;" horiz-adv-x="649" d="M143 217l219 311l-219 312l97 67l266 -379l-266 -378z" />
<glyph unicode="&#x205f;" horiz-adv-x="471" />
<glyph unicode="&#x20ac;" horiz-adv-x="1169" d="M129 473v102h92q-6 63 -6 134q0 73 8 137h-94v102h111q51 229 199 363q148 135 368 135q145 0 280 -35l-28 -117q-113 33 -252 33q-173 0 -283 -100q-110 -99 -155 -279h585l-34 -102h-570q-8 -64 -8 -137t8 -134h502l-35 -102h-448q43 -178 153 -279q111 -102 285 -102 q139 0 252 33l28 -117q-135 -35 -280 -35q-220 0 -368 136q-147 135 -199 364h-111z" />
<glyph unicode="&#x2122;" horiz-adv-x="1607" d="M111 1323v96h503v-96h-200v-571h-103v571h-200zM686 754l96 665h125l174 -559l176 559h125l97 -665h-105l-69 530l-172 -530h-101l-174 530l-67 -530h-105z" />
<glyph unicode="&#x25fc;" horiz-adv-x="1013" d="M0 0v1014h1014v-1014h-1014z" />
</font>
</defs>
</svg>
