<?xml version="1.0" standalone="no"?>
<!DOCTYPE svg PUBLIC "-//W3C//DTD SVG 1.1//EN" "http://www.w3.org/Graphics/SVG/1.1/DTD/svg11.dtd" >
<svg xmlns="http://www.w3.org/2000/svg" xmlns:xlink="http://www.w3.org/1999/xlink" version="1.1">
<metadata></metadata>
<defs>
<font id="faricynew-regularuploadedfile" horiz-adv-x="1224" >
<font-face units-per-em="2048" ascent="1561" descent="-487" />
<missing-glyph horiz-adv-x="497" />
<glyph unicode="&#xfb01;" horiz-adv-x="1099" d="M25 895v129h168v143q0 351 372 351q133 0 281 -43l-29 -148q-141 33 -235 33q-121 0 -168 -47t-47 -154v-135h589v-1024h-174v895h-415v-895h-174v895h-168z" />
<glyph unicode="&#xfb02;" horiz-adv-x="1112" d="M25 895v129h168v143q0 351 370 351q113 0 219 -27h174v-1272q0 -49 20 -71q20 -21 64 -21l-20 -152q-238 0 -238 213v1145q-112 27 -202 27q-119 0 -166 -47t-47 -154v-135h256v-129h-256v-895h-174v895h-168z" />
<glyph unicode="&#xfb03;" horiz-adv-x="1730" d="M25 895v129h168v164q0 160 90 245q89 85 245 85q82 0 172 -27l-32 -154q-69 23 -129 23q-91 0 -132 -44q-40 -43 -40 -136v-156h456v143q0 351 373 351q133 0 281 -43l-29 -148q-141 33 -236 33q-121 0 -168 -47t-47 -154v-135h590v-1024h-174v895h-416v-895h-174v895 h-456v-895h-174v895h-168z" />
<glyph unicode="&#xfb04;" horiz-adv-x="1742" d="M25 895v129h168v164q0 160 90 245q89 85 245 85q82 0 172 -27l-32 -154q-69 23 -129 23q-91 0 -132 -44q-40 -43 -40 -136v-156h456v143q0 351 371 351q112 0 219 -27h174v-1272q0 -49 20 -71q19 -21 64 -21l-20 -152q-238 0 -238 213v1145q-113 27 -203 27 q-119 0 -166 -47t-47 -154v-135h256v-129h-256v-895h-174v895h-456v-895h-174v895h-168z" />
<glyph horiz-adv-x="0" />
<glyph unicode="&#xd;" horiz-adv-x="681" />
<glyph unicode=" "  horiz-adv-x="497" />
<glyph unicode="&#x09;" horiz-adv-x="497" />
<glyph unicode="&#xa0;" horiz-adv-x="497" />
<glyph unicode="!" horiz-adv-x="573" d="M164 96q0 50 37 84q38 35 86 35q52 0 87 -34q36 -35 36 -85q0 -49 -36 -85t-87 -36t-87 36t-36 85zM201 410v1009h174v-1009h-174z" />
<glyph unicode="&#x22;" horiz-adv-x="774" d="M164 1491h166l-33 -518h-102zM442 1491h166l-33 -518h-102z" />
<glyph unicode="#" horiz-adv-x="1247" d="M137 342v160h160l35 397h-144v162h158l33 342h162l-33 -342h293l33 342h159l-30 -342h143v-162h-158l-35 -397h146v-160h-160l-31 -342h-161l30 342h-293l-30 -342h-162l31 342h-146zM459 502h293l34 397h-292z" />
<glyph unicode="$" horiz-adv-x="1064" d="M96 78l51 153q197 -94 353 -94q124 0 201 63t77 163q0 75 -48 131t-120 84q-57 22 -156 66q-75 33 -157 79q-72 40 -120 119q-48 78 -48 186q0 146 90 245q91 100 244 124v235h153v-229q135 -15 285 -78l-51 -151q-161 67 -295 67q-114 0 -177 -57t-63 -156 q0 -71 49 -126t119 -84q94 -39 157 -69q87 -41 157 -82t119 -120q49 -80 49 -185q0 -147 -100 -250q-98 -101 -259 -128v-238h-153v229q-181 12 -357 103z" />
<glyph unicode="%" horiz-adv-x="1908" d="M100 1047q0 157 104 269q104 111 263 111t263 -111q104 -112 104 -269q0 -158 -104 -270q-104 -111 -263 -111t-263 111q-104 112 -104 270zM248 1047q0 -106 60 -178t159 -72q97 0 158 72q61 71 61 178q0 106 -61 177q-62 72 -158 72q-97 0 -158 -72q-61 -71 -61 -177z M600 0l559 1401h152l-559 -1401h-152zM1090 354q0 160 103 270q103 111 263 111t263 -111q104 -112 104 -270q0 -157 -104 -269t-263 -112t-263 112q-103 110 -103 269zM1237 354q0 -105 60 -177q61 -73 159 -73q96 0 158 73q61 71 61 177t-61 177q-62 73 -158 73t-158 -73 q-61 -71 -61 -177z" />
<glyph unicode="&#x26;" horiz-adv-x="1298" d="M131 344q0 139 72 238t198 182q-90 185 -90 328q0 160 96 258q95 96 246 96q146 0 230 -89t84 -216q0 -44 -13 -91q-11 -41 -43 -84q-27 -37 -55 -68q-24 -27 -78 -67q-25 -18 -78 -55q-10 -7 -88 -57q104 -182 303 -391q93 115 138 239l143 -61q-72 -159 -170 -283 q76 -70 164 -141l-115 -107q-60 43 -162 134q-160 -136 -352 -136q-206 0 -318 109t-112 262zM313 367q0 -114 69 -174t181 -60q124 0 236 88q-197 208 -320 406q-166 -123 -166 -260zM485 1098q0 -106 60 -246q79 49 127 84q45 33 84 87t39 114q0 73 -36 116t-106 43 q-82 0 -125 -52t-43 -146z" />
<glyph unicode="'" horiz-adv-x="501" d="M168 1491h166l-31 -518h-104z" />
<glyph unicode="(" horiz-adv-x="813" d="M223 616q0 530 344 1008h168q-344 -506 -344 -1008q0 -501 344 -1007h-168q-344 478 -344 1007z" />
<glyph unicode=")" horiz-adv-x="813" d="M78 -391q344 506 344 1007q0 502 -344 1008h168q344 -478 344 -1008q0 -529 -344 -1007h-168z" />
<glyph unicode="*" horiz-adv-x="952" d="M104 1157l56 168l248 -102l-19 268h174l-18 -268l248 102l55 -168l-262 -65l172 -203l-140 -103l-143 228l-141 -228l-139 103l170 203z" />
<glyph unicode="+" horiz-adv-x="1261" d="M166 440v168h381v381h168v-381h381v-168h-381v-381h-168v381h-381z" />
<glyph unicode="," horiz-adv-x="483" d="M104 -319l95 538l176 -31l-156 -528z" />
<glyph unicode="-" horiz-adv-x="921" d="M152 451v155h618v-155h-618z" />
<glyph unicode="." horiz-adv-x="534" d="M145 98q0 49 36 85t87 36q49 0 85 -36t36 -85q0 -51 -36 -87t-85 -36q-51 0 -87 36t-36 87z" />
<glyph unicode="/" horiz-adv-x="872" d="M109 -199l499 1694h156l-500 -1694h-155z" />
<glyph unicode="0" horiz-adv-x="1150" d="M96 709q0 358 128 548q128 189 351 189q225 0 352 -189q128 -190 128 -548q0 -360 -128 -548t-352 -188q-223 0 -351 188t-128 548zM274 709q0 -578 301 -578q302 0 302 578q0 579 -302 579q-301 0 -301 -579z" />
<glyph unicode="1" horiz-adv-x="923" d="M96 1262l365 157h145v-1261h254v-158h-715v158h287v1071l-266 -119z" />
<glyph unicode="2" horiz-adv-x="1075" d="M98 0v141q196 174 283 260q107 105 198 216q89 108 130 207q39 94 39 194q0 113 -73 192q-72 78 -196 78q-143 0 -295 -78l-63 140q174 96 360 96q189 0 318 -112q127 -111 127 -310q0 -110 -45 -226q-45 -115 -135 -231q-88 -114 -175 -205q-82 -86 -209 -204h570v-158 h-834z" />
<glyph unicode="3" horiz-adv-x="989" d="M51 47l51 150q167 -66 295 -66q141 0 223 77q80 76 80 195q0 124 -95 196q-96 73 -240 73h-86v153h94q109 0 193 67q83 66 83 167q0 98 -69 164q-68 65 -181 65q-133 0 -278 -74l-68 142q167 90 346 90q194 0 312 -103q116 -101 116 -284q0 -89 -55 -172t-156 -133 q136 -45 200 -141q63 -95 63 -210q0 -184 -129 -307t-355 -123q-160 0 -344 74z" />
<glyph unicode="4" horiz-adv-x="1140" d="M84 469l557 950h231v-930h185v-157h-185v-332h-174v332h-596zM276 489h422v734z" />
<glyph unicode="5" horiz-adv-x="1091" d="M72 76l53 145q198 -90 340 -90q155 0 247 92q91 91 91 246q0 121 -75 207t-243 86q-142 0 -319 -68l47 725h705v-157h-547l-27 -371q86 27 164 27q235 0 354 -131t119 -314q0 -223 -141 -361q-142 -139 -373 -139q-192 0 -395 103z" />
<glyph unicode="6" horiz-adv-x="1157" d="M96 477q0 112 41 205l322 737h190l-221 -475q72 33 152 33q205 0 343 -147t138 -353q0 -209 -137 -357q-136 -147 -344 -147q-210 0 -347 147q-137 148 -137 357zM274 477q0 -144 85 -245t221 -101t219 101q84 102 84 245q0 141 -84 240q-83 98 -219 98t-221 -98 t-85 -240z" />
<glyph unicode="7" horiz-adv-x="1017" d="M51 1262v157h922v-123l-539 -1296h-194l536 1262h-725z" />
<glyph unicode="8" horiz-adv-x="1130" d="M102 369q0 133 75 215t208 145q-118 62 -178 141q-64 84 -64 213q0 174 128 269q127 94 292 94q167 0 295 -94q129 -94 129 -269q0 -125 -65 -202t-181 -138q135 -67 211 -151q76 -83 76 -223q0 -182 -137 -289t-328 -107q-187 0 -324 107t-137 289zM281 367 q0 -102 83 -168q82 -66 199 -66t202 66t85 168q0 57 -23 101q-24 45 -71 80q-45 33 -90 56q-37 19 -115 51q-135 -57 -202 -119q-68 -62 -68 -169zM322 1083q0 -92 65 -150q67 -59 188 -114q116 56 175 114t59 150q0 85 -68 145t-178 60q-111 0 -176 -59t-65 -146z" />
<glyph unicode="9" horiz-adv-x="1157" d="M96 944q0 207 138 354q139 148 344 148q204 0 344 -148q139 -146 139 -354q0 -112 -35 -190l-328 -754h-190l219 475q-67 -35 -149 -35q-205 0 -344 148q-138 147 -138 356zM274 944q0 -145 85 -243q85 -99 219 -99t219 99q86 100 86 243q0 140 -86 243q-85 101 -219 101 t-219 -101t-85 -243z" />
<glyph unicode=":" horiz-adv-x="550" d="M154 98q0 52 35 86q37 35 87 35q48 0 85 -35q36 -34 36 -86q0 -48 -36 -86q-36 -37 -85 -37q-51 0 -87 37q-35 36 -35 86zM154 809q0 50 35 85q36 36 87 36q49 0 85 -36t36 -85q0 -51 -36 -87t-85 -36q-51 0 -87 36q-35 35 -35 87z" />
<glyph unicode=";" horiz-adv-x="557" d="M100 -319l95 538l176 -31l-156 -528zM158 809q0 49 36 85t87 36q49 0 86 -36q36 -35 36 -85q0 -52 -36 -87q-37 -36 -86 -36q-51 0 -87 36t-36 87z" />
<glyph unicode="&#x3c;" horiz-adv-x="1165" d="M207 528l643 541l108 -129l-491 -412l491 -413l-108 -127z" />
<glyph unicode="=" horiz-adv-x="1261" d="M166 217v168h930v-168h-930zM166 668v168h930v-168h-930z" />
<glyph unicode="&#x3e;" horiz-adv-x="1165" d="M207 117l489 411l-489 414l108 127l643 -541l-643 -540z" />
<glyph unicode="?" horiz-adv-x="1034" d="M156 1333q185 113 346 113q183 0 286 -106t103 -234q0 -77 -31 -148q-28 -65 -76 -124q-30 -37 -90 -113q-47 -60 -76 -136q-30 -79 -30 -171h-174q0 104 30 193t76 150q36 48 89 112q48 58 75 108q31 57 31 110q0 85 -56 138t-161 53q-126 0 -267 -90zM379 96 q0 50 36 85q35 34 87 34q51 0 88 -34t37 -85q0 -49 -38 -85q-37 -36 -87 -36q-51 0 -87 36t-36 85z" />
<glyph unicode="@" horiz-adv-x="1978" d="M104 477q0 411 250 658t650 247q394 0 630 -249q238 -252 238 -648q0 -218 -92 -352q-91 -133 -269 -133q-188 0 -231 178q-111 -178 -322 -178q-191 0 -312 142q-122 143 -122 343q0 201 123 343q123 143 311 143q185 0 299 -146v119l154 -26v-637q0 -156 119 -156 q91 0 148 88q57 89 57 268q0 363 -203 569q-202 205 -528 205q-334 0 -547 -213t-213 -565q0 -348 205 -549q204 -200 536 -200q186 0 348 69l39 -121q-185 -75 -387 -75q-400 0 -640 237q-241 238 -241 639zM684 485q0 -149 81 -245q82 -97 206 -97q122 0 210 96 q87 95 87 246q0 155 -88 249q-89 95 -209 95q-123 0 -205 -97t-82 -247z" />
<glyph unicode="A" horiz-adv-x="1282" d="M57 0l473 1419h222l473 -1419h-183l-141 426h-520l-141 -426h-183zM432 586h418l-137 409q-29 85 -72 248q-42 -162 -72 -248z" />
<glyph unicode="B" horiz-adv-x="1169" d="M164 0v1419h385q227 0 341 -104q116 -105 116 -271q0 -200 -185 -290q128 -39 197 -129t69 -215q0 -176 -132 -293t-351 -117h-440zM342 164h240q160 0 239 67q80 68 80 183q0 112 -78 183q-79 71 -243 71h-238v-504zM342 815h207q134 0 202 59t68 164q0 101 -71 159 t-209 58h-197v-440z" />
<glyph unicode="C" horiz-adv-x="1323" d="M104 709q0 205 82 369q83 166 248 267t389 101q203 0 398 -72l-43 -153q-176 59 -355 59q-262 0 -397 -163t-135 -408q0 -243 135 -407q135 -163 397 -163q159 0 353 64l45 -160q-192 -70 -398 -70q-334 0 -526 211q-193 213 -193 525z" />
<glyph unicode="D" horiz-adv-x="1415" d="M164 0v1419h479q219 0 374 -99t224 -257q70 -160 70 -356q0 -310 -171 -508q-172 -199 -497 -199h-479zM342 164h279q135 0 238 44q101 43 158 123q56 79 82 172q25 91 25 204q0 111 -25 204q-26 96 -82 174q-58 81 -158 125q-102 45 -238 45h-279v-1091z" />
<glyph unicode="E" horiz-adv-x="1040" d="M164 0v1419h762v-164h-584v-454h539l-25 -160h-514v-477h598v-164h-776z" />
<glyph unicode="F" horiz-adv-x="976" d="M164 0v1419h733v-164h-555v-456h510l-25 -160h-485v-639h-178z" />
<glyph unicode="G" horiz-adv-x="1511" d="M104 707q0 315 204 527t552 212q230 0 445 -84l-52 -152q-199 70 -393 70q-275 0 -422 -166t-147 -407q0 -237 147 -403q147 -167 393 -167q182 0 373 82v449l174 49v-596q-255 -148 -547 -148q-317 0 -522 213q-205 212 -205 521z" />
<glyph unicode="H" horiz-adv-x="1341" d="M164 0v1419h178v-614h657v614h179v-1419h-179v641h-657v-641h-178z" />
<glyph unicode="I" horiz-adv-x="505" d="M164 0v1419h178v-1419h-178z" />
<glyph unicode="J" horiz-adv-x="983" d="M57 53l56 156q147 -72 274 -72q264 0 264 332v950h180v-975q0 -228 -121 -349q-122 -122 -323 -122q-165 0 -330 80z" />
<glyph unicode="K" horiz-adv-x="1232" d="M164 0v1419h178v-784l573 784h209l-454 -620l506 -799h-215l-406 651l-213 -286v-365h-178z" />
<glyph unicode="L" horiz-adv-x="999" d="M164 0v1419l178 25v-1280h580v-164h-758z" />
<glyph unicode="M" horiz-adv-x="1740" d="M78 0l203 1419h213l307 -987q26 -87 67 -256q60 228 70 256l307 987h215l203 -1419h-180l-125 922q-23 168 -27 235q-39 -150 -67 -237l-289 -908h-211l-287 908q-40 120 -69 235q-6 -78 -25 -233l-125 -922h-180z" />
<glyph unicode="N" horiz-adv-x="1400" d="M164 0v1389l164 30l729 -1097v1097h180v-1419h-168l-727 1094v-1094h-178z" />
<glyph unicode="O" horiz-adv-x="1634" d="M104 707q0 307 201 523t512 216t512 -216t201 -523q0 -308 -201 -521t-512 -213t-512 213t-201 521zM291 707q0 -241 145 -405q146 -165 381 -165t381 165q145 164 145 405q0 240 -145 407q-146 168 -381 168t-381 -168q-145 -167 -145 -407z" />
<glyph unicode="P" horiz-adv-x="1103" d="M164 0v1419h395q217 0 342 -114t125 -314q0 -198 -130 -315t-345 -117h-209v-559h-178zM342 719h188q312 0 312 272q0 129 -72 197q-71 67 -233 67h-195v-536z" />
<glyph unicode="Q" horiz-adv-x="1634" d="M104 707q0 307 201 523t512 216t512 -216t201 -523q0 -253 -139 -446q-140 -194 -369 -257l92 -356l-164 -39l-94 366q-16 -2 -39 -2q-311 0 -512 213t-201 521zM291 707q0 -241 145 -405q146 -165 381 -165t381 165q145 164 145 405q0 240 -145 407q-146 168 -381 168 t-381 -168q-145 -167 -145 -407z" />
<glyph unicode="R" horiz-adv-x="1126" d="M164 0v1419h395q217 0 342 -114t125 -314q0 -151 -81 -258t-216 -147l309 -586h-200l-291 563h-205v-563h-178zM342 719h188q312 0 312 272q0 264 -305 264h-195v-536z" />
<glyph unicode="S" horiz-adv-x="1042" d="M74 78l51 153q201 -94 352 -94q123 0 201 63t78 162q0 76 -47 134q-46 56 -118 90q-88 41 -154 76q-83 44 -153 87q-72 45 -118 124q-47 82 -47 188q0 182 126 284q125 101 298 101q162 0 346 -80l-55 -152q-154 68 -291 68q-112 0 -175 -60t-63 -161q0 -85 66 -146 q67 -62 158 -105q80 -37 188 -94q92 -48 160 -139q65 -87 65 -215q0 -173 -132 -281t-333 -108q-190 0 -403 105z" />
<glyph unicode="T" horiz-adv-x="1114" d="M68 1255v164h979v-164h-400v-1255h-180v1255h-399z" />
<glyph unicode="U" horiz-adv-x="1347" d="M133 514v905h178v-882q0 -183 93 -291q94 -109 270 -109q174 0 267 110q93 109 93 292v880h180v-905q0 -235 -149 -387q-151 -154 -391 -154q-244 0 -392 153q-149 154 -149 388z" />
<glyph unicode="V" horiz-adv-x="1269" d="M51 1419h185l327 -995q35 -109 70 -246q9 29 36 125t36 121l329 995h185l-474 -1419h-221z" />
<glyph unicode="W" horiz-adv-x="1787" d="M74 1419h182l193 -944q15 -72 40 -260q43 154 78 262l226 672h202l226 -672q28 -83 77 -264q23 171 41 262l193 944h182l-299 -1419h-209l-243 719q-37 110 -70 227q-24 -96 -68 -227l-243 -719h-209z" />
<glyph unicode="X" horiz-adv-x="1271" d="M57 0l473 727l-446 692h205l348 -540l352 540h199l-447 -688l473 -731h-206l-373 580l-377 -580h-201z" />
<glyph unicode="Y" horiz-adv-x="1236" d="M57 1419h201l360 -657l363 657h199l-471 -835v-584h-185v584z" />
<glyph unicode="Z" horiz-adv-x="1118" d="M92 0v123l678 1132h-661v164h890v-123l-675 -1132h702v-164h-934z" />
<glyph unicode="[" horiz-adv-x="606" d="M197 -391v2015h329v-145h-155v-1727h155v-143h-329z" />
<glyph unicode="\" horiz-adv-x="870" d="M109 1495h153l500 -1694h-156z" />
<glyph unicode="]" horiz-adv-x="606" d="M82 -248h154v1727h-154v145h328v-2015h-328v143z" />
<glyph unicode="^" horiz-adv-x="1181" d="M186 780l324 639h170l324 -639h-179l-231 488l-229 -488h-179z" />
<glyph unicode="_" horiz-adv-x="1024" d="M0 -156h1024v-145h-1024v145z" />
<glyph unicode="`" horiz-adv-x="505" d="M100 1483h187l116 -297h-147z" />
<glyph unicode="a" d="M94 514q0 222 136 379q137 158 345 158q207 0 332 -162v135l174 -20v-1004h-143l-18 152q-125 -179 -345 -179q-213 0 -347 158t-134 383zM274 514q0 -164 90 -274q89 -109 224 -109q134 0 232 106t98 277q0 168 -97 274q-96 105 -233 105q-133 0 -223 -107 q-91 -108 -91 -272z" />
<glyph unicode="b" d="M143 0v1470l174 48v-629q121 162 332 162t346 -158q135 -157 135 -381t-135 -381q-135 -158 -346 -158q-221 0 -344 179l-18 -152h-144zM307 514q0 -170 96 -276q96 -107 234 -107q136 0 224 108q89 109 89 273t-89 273q-88 108 -224 108q-135 0 -233 -105 q-97 -104 -97 -274z" />
<glyph unicode="c" horiz-adv-x="1048" d="M94 512q0 226 146 383q146 156 389 156q172 0 346 -74l-49 -146q-159 62 -295 62q-167 0 -261 -111q-96 -113 -96 -270t96 -270q95 -111 259 -111q124 0 293 68l51 -154q-153 -72 -344 -72q-243 0 -389 156q-146 157 -146 383z" />
<glyph unicode="d" d="M94 512q0 224 135 381q135 158 346 158q207 0 332 -162v602h174v-1491h-143l-18 152q-123 -179 -345 -179q-211 0 -346 158q-135 157 -135 381zM274 512q0 -163 90 -273q88 -108 224 -108q137 0 233 107q97 108 97 276t-98 274q-98 105 -232 105q-136 0 -224 -108 q-90 -110 -90 -273z" />
<glyph unicode="e" horiz-adv-x="1120" d="M94 510q0 229 133 384q134 157 346 157q227 0 346 -156q117 -154 117 -399h-762q5 -161 96 -263q92 -102 251 -102q139 0 301 64l34 -154q-157 -68 -338 -68q-238 0 -381 155t-143 382zM285 627h573q-44 266 -285 266q-105 0 -184 -67q-77 -65 -104 -199z" />
<glyph unicode="f" horiz-adv-x="638" d="M25 895v129h168v164q0 160 90 245q89 85 245 85q82 0 172 -27l-32 -154q-69 23 -129 23q-91 0 -132 -44q-40 -43 -40 -136v-156h256v-129h-256v-895h-174v895h-168z" />
<glyph unicode="g" d="M94 524q0 218 135 372q135 155 346 155q209 0 338 -162l7 135l163 -20v-1002q0 -210 -140 -343q-142 -134 -361 -134q-193 0 -355 78l52 143q144 -63 303 -63q156 0 242 93q85 92 85 249v133q-128 -158 -334 -158q-213 0 -347 154t-134 370zM274 524q0 -163 88 -264 q88 -102 226 -102q137 0 233 100q97 102 97 268q0 162 -96 266q-94 101 -234 101q-135 0 -224 -102q-90 -104 -90 -267z" />
<glyph unicode="h" horiz-adv-x="1126" d="M143 0v1468l174 50v-641q107 174 336 174q153 0 247 -106q93 -105 93 -286v-659h-174v629q0 123 -51 193q-51 71 -150 71q-136 0 -219 -110q-82 -109 -82 -306v-477h-174z" />
<glyph unicode="i" horiz-adv-x="458" d="M117 1352q0 48 33 78t79 30q45 0 79 -30t34 -78q0 -45 -33 -78t-80 -33q-49 0 -81 32q-31 31 -31 79zM143 0v1024h174v-1024h-174z" />
<glyph unicode="j" horiz-adv-x="458" d="M-190 -446l32 151q75 -22 125 -22q176 0 176 186v1155h174v-1167q0 -161 -90 -246q-91 -86 -245 -86q-65 0 -172 29zM117 1352q0 48 33 78t79 30q45 0 79 -30t34 -78q0 -45 -33 -78t-80 -33q-49 0 -81 32q-31 31 -31 79z" />
<glyph unicode="k" horiz-adv-x="1009" d="M143 0v1470l174 48v-949l375 455h209l-332 -391l414 -633h-199l-327 498l-140 -164v-334h-174z" />
<glyph unicode="l" horiz-adv-x="473" d="M143 188v1280l174 50v-1299q0 -49 20 -71q19 -21 64 -21l-20 -152q-238 0 -238 213z" />
<glyph unicode="m" horiz-adv-x="1699" d="M143 0v1004l148 20l18 -141q101 168 301 168q217 0 297 -197q102 197 328 197q154 0 243 -104t89 -283v-664h-174v633q0 260 -191 260q-113 0 -186 -103q-74 -104 -74 -303v-487h-174v633q0 260 -190 260q-108 0 -185 -102q-76 -101 -76 -289v-502h-174z" />
<glyph unicode="n" horiz-adv-x="1126" d="M143 0v1004l148 20l18 -158q108 185 344 185q153 0 247 -106q93 -105 93 -286v-659h-174v629q0 123 -51 193q-51 71 -150 71q-136 0 -219 -110q-82 -109 -82 -306v-477h-174z" />
<glyph unicode="o" horiz-adv-x="1228" d="M94 512q0 222 148 381q147 158 372 158q226 0 373 -158q148 -159 148 -381q0 -226 -147 -382q-148 -157 -374 -157q-225 0 -373 157q-147 156 -147 382zM274 512q0 -160 97 -271q96 -110 243 -110q148 0 244 110t96 271q0 162 -96 271q-96 110 -244 110q-147 0 -243 -110 q-97 -111 -97 -271z" />
<glyph unicode="p" d="M143 -449v1459l144 14l18 -154q124 181 344 181q211 0 346 -158q135 -157 135 -381t-135 -381q-135 -158 -346 -158q-213 0 -332 160v-582h-174zM307 510q0 -170 97 -274q98 -105 233 -105q136 0 224 108q89 109 89 273t-89 273q-88 108 -224 108q-138 0 -234 -107 q-96 -106 -96 -276z" />
<glyph unicode="q" d="M94 512q0 224 135 381q135 158 346 158q220 0 345 -179l18 152l143 -14v-1409l-174 -50v582q-124 -160 -332 -160q-209 0 -345 159q-136 158 -136 380zM274 512q0 -163 90 -273q88 -108 224 -108q134 0 232 106t98 275t-97 275t-233 106t-224 -108q-90 -110 -90 -273z " />
<glyph unicode="r" horiz-adv-x="692" d="M143 0v1004l148 20l20 -166q115 193 353 193v-158q-157 0 -252 -119t-95 -295v-479h-174z" />
<glyph unicode="s" horiz-adv-x="802" d="M70 53l47 150q147 -72 256 -72q76 0 126 41t50 100q0 56 -46 95q-44 37 -112 68q-51 23 -131 65q-65 34 -112 101q-46 65 -46 159q0 134 97 213q96 78 229 78q126 0 270 -66l-53 -141q-110 49 -211 49q-71 0 -111 -37t-40 -96q0 -53 46 -92q51 -43 111 -70 q57 -26 131 -68q67 -38 112 -102q46 -65 46 -156q0 -134 -99 -216q-100 -83 -251 -83q-149 0 -309 80z" />
<glyph unicode="t" horiz-adv-x="710" d="M39 895v129h141v248l174 53v-301h244v-129h-244v-584q0 -180 158 -180q65 0 129 23l33 -154q-92 -27 -172 -27q-146 0 -234 82t-88 242v598h-141z" />
<glyph unicode="u" horiz-adv-x="1126" d="M133 365v659h174v-629q0 -122 50 -193t149 -71q137 0 220 110t83 306v477h174v-1024h-147l-21 156q-108 -183 -342 -183q-153 0 -247 106q-93 105 -93 286z" />
<glyph unicode="v" horiz-adv-x="1005" d="M37 1024h180l211 -604q30 -81 74 -252q54 190 76 252l210 604h181l-367 -1024h-199z" />
<glyph unicode="w" horiz-adv-x="1509" d="M47 1024h178l162 -594q27 -96 55 -242q13 51 28 116q19 84 30 124l162 596h186l162 -596q5 -17 57 -240q29 145 55 242l162 594h178l-288 -1024h-199l-164 602q-28 103 -57 236q-17 -90 -56 -236l-166 -602h-198z" />
<glyph unicode="x" horiz-adv-x="966" d="M35 0l344 537l-305 487h196l215 -342l217 342h189l-307 -477l346 -547h-197l-254 401l-256 -401h-188z" />
<glyph unicode="y" horiz-adv-x="1001" d="M29 -426l51 145q76 -36 149 -36q103 0 150 141l57 176h-30l-363 1024h184l215 -637q7 -18 66 -223q27 116 63 225l203 635h182l-424 -1272q-38 -112 -114 -169q-77 -58 -176 -58q-115 0 -213 49z" />
<glyph unicode="z" horiz-adv-x="894" d="M84 0v104l477 762h-450v158h682v-104l-478 -762h496v-158h-727z" />
<glyph unicode="{" horiz-adv-x="782" d="M150 551v131q85 0 135 46q51 46 51 132v416q0 167 73 257t242 91v-160q-85 0 -115 -40t-30 -142v-422q0 -90 -34 -146q-35 -58 -124 -98q90 -40 124 -97q34 -56 34 -146v-422q0 -101 30 -142q30 -40 115 -40v-160q-169 1 -242 91t-73 257v416q0 85 -51 132 q-50 46 -135 46z" />
<glyph unicode="|" horiz-adv-x="495" d="M164 -203v1778h168v-1778h-168z" />
<glyph unicode="}" horiz-adv-x="782" d="M131 -231q86 0 116 40q29 39 29 142v422q0 90 34 146q34 57 124 97q-89 40 -124 98q-34 56 -34 146v422q0 103 -29 142q-30 40 -116 40v160q170 -2 243 -91q72 -89 72 -257v-416q0 -85 53 -132q52 -46 134 -46v-131q-82 0 -134 -46q-53 -47 -53 -132v-416 q0 -169 -72 -257q-73 -89 -243 -91v160z" />
<glyph unicode="~" horiz-adv-x="1148" d="M170 1153q0 136 64 213q64 78 182 78q62 0 120 -40q62 -43 106 -80q47 -40 83 -40q86 0 86 135h168q0 -134 -65 -213q-64 -78 -181 -78q-62 0 -120 40q-62 43 -106 80q-47 40 -83 40q-86 0 -86 -135h-168z" />
<glyph unicode="&#xa1;" horiz-adv-x="573" d="M162 1085q0 49 36 85t87 36t87 -36t36 -85q0 -50 -37 -84t-86 -34q-53 0 -87 33q-36 34 -36 85zM197 -238v1010h174v-1010h-174z" />
<glyph unicode="&#xa2;" horiz-adv-x="1128" d="M113 512q0 205 119 354q120 149 327 178v234h154v-231q130 -7 280 -70l-49 -146q-159 62 -295 62q-168 0 -264 -111t-96 -270q0 -158 95 -270q94 -111 263 -111q124 0 293 68l51 -154q-129 -59 -278 -70v-229h-154v234q-207 29 -327 178q-119 149 -119 354z" />
<glyph unicode="&#xa3;" horiz-adv-x="1069" d="M117 555v133h159q-55 181 -55 336q0 194 122 308q121 114 319 114q150 0 323 -82l-53 -150q-142 68 -270 68q-129 0 -196 -70t-67 -188q0 -133 62 -336h342v-133h-316q7 -40 7 -68q0 -197 -138 -327h619v-160h-828v150q166 150 166 344q0 25 -4 61h-192z" />
<glyph unicode="&#xa4;" horiz-adv-x="1085" d="M125 225l123 123q-47 79 -47 174q0 97 49 174l-125 127l119 119l125 -127q85 51 176 51q93 0 170 -49l127 125l119 -119l-125 -123q53 -85 53 -178q0 -91 -51 -176l123 -121l-119 -119l-123 121q-76 -49 -174 -49q-102 0 -180 51l-121 -123zM360 522q0 -74 54 -130 q53 -54 131 -54q77 0 129 54q53 55 53 130q0 76 -53 129q-54 54 -129 54q-74 0 -130 -54q-55 -53 -55 -129z" />
<glyph unicode="&#xa5;" horiz-adv-x="1130" d="M43 1419h199l323 -651l326 651h196l-382 -747h239v-131h-289v-183h289v-133h-289v-225h-182v225h-287v133h287v183h-287v131h240z" />
<glyph unicode="&#xa6;" horiz-adv-x="495" d="M164 -203v656h168v-656h-168zM164 920v655h168v-655h-168z" />
<glyph unicode="&#xa7;" horiz-adv-x="1097" d="M125 -82l43 150q142 -68 283 -68q94 0 146 43t52 121q0 68 -50 115q-49 46 -123 77q-72 30 -145 68q-75 39 -123 106q-50 70 -50 172q0 188 159 273q-36 59 -36 153q0 140 95 229t245 89q143 0 284 -62l-39 -147q-121 51 -233 51q-170 0 -170 -158q0 -61 50 -105 q49 -43 123 -77q90 -41 145 -71q74 -40 123 -111q50 -73 50 -174q0 -181 -161 -270q38 -66 38 -156q0 -141 -108 -233q-107 -91 -264 -91q-167 0 -334 76zM340 705q0 -64 47 -105q48 -42 145 -86q101 -46 140 -72q100 34 100 148q0 56 -34 96q-36 42 -74 62q-29 15 -110 52 q-63 29 -105 54q-109 -27 -109 -149z" />
<glyph unicode="&#xa8;" horiz-adv-x="837" d="M125 1331q0 47 33 81t80 34q46 0 79 -34t33 -81q0 -45 -34 -79q-33 -33 -78 -33q-48 0 -80 33q-33 34 -33 79zM487 1331q0 47 33 81t78 34q47 0 80 -34t33 -81t-33 -80q-32 -32 -80 -32q-46 0 -78 33q-33 34 -33 79z" />
<glyph unicode="&#xa9;" horiz-adv-x="1533" d="M104 684q0 289 187 487q186 197 477 197q290 0 476 -197q186 -196 186 -487t-186 -486q-187 -196 -476 -196q-290 0 -477 196t-187 486zM233 684q0 -237 149 -398t386 -161q238 0 385 161t147 398q0 234 -147 398q-147 163 -385 163t-386 -163q-149 -164 -149 -398z M412 684q0 159 97 263q98 106 267 106q106 0 213 -43l-35 -107q-90 35 -178 35q-116 0 -177 -73q-60 -72 -60 -181q0 -106 60 -178t177 -72q88 0 182 39l33 -111q-105 -43 -215 -43q-169 0 -267 104q-97 103 -97 261z" />
<glyph unicode="&#xaa;" horiz-adv-x="894" d="M96 1038q0 157 94 269t244 112q137 0 219 -104v86l146 -15v-708h-123l-14 94q-86 -113 -228 -113q-149 0 -244 112q-94 110 -94 267zM244 1038q0 -110 56 -179q57 -71 149 -71q89 0 152 71t63 181q0 112 -64 182q-62 68 -151 68q-93 0 -149 -71t-56 -181z" />
<glyph unicode="&#xab;" horiz-adv-x="1054" d="M129 528l274 398l144 -97l-209 -301l209 -299l-144 -98zM508 528l276 398l142 -97l-209 -301l209 -299l-142 -98z" />
<glyph unicode="&#xac;" horiz-adv-x="1323" d="M199 440v170h911v-467h-170v297h-741z" />
<glyph unicode="&#xad;" horiz-adv-x="0" />
<glyph unicode="&#xae;" horiz-adv-x="1533" d="M104 684q0 289 187 487q186 197 477 197q290 0 476 -197q186 -196 186 -487t-186 -486q-187 -196 -476 -196q-290 0 -477 196t-187 486zM233 684q0 -237 149 -398t386 -161q238 0 385 161t147 398q0 234 -147 398q-147 163 -385 163t-386 -163q-149 -164 -149 -398z M547 348v703h209q123 0 186 -60q64 -61 64 -166q0 -69 -35 -124q-34 -54 -101 -78l134 -275h-132l-120 258h-80v-258h-125zM672 713h82q125 0 125 112q0 111 -125 111h-82v-223z" />
<glyph unicode="&#xaf;" horiz-adv-x="731" d="M92 1264v147h545v-147h-545z" />
<glyph unicode="&#xb0;" horiz-adv-x="731" d="M104 1161q0 111 77 188q76 76 186 76q108 0 184 -76t76 -188q0 -109 -76 -185q-77 -77 -184 -77q-109 0 -186 77t-77 185zM227 1161q0 -59 40 -99t100 -40q57 0 98 41t41 98t-41 100q-41 42 -98 42q-58 0 -99 -41t-41 -101z" />
<glyph unicode="&#xb1;" horiz-adv-x="1261" d="M166 -18h930v-162h-930v162zM166 440v168h381v332h168v-332h381v-168h-381v-331h-168v331h-381z" />
<glyph unicode="&#xb4;" horiz-adv-x="505" d="M100 1186l119 297h184l-153 -297h-150z" />
<glyph unicode="&#xb5;" horiz-adv-x="1122" d="M139 -449v1473h174v-604q0 -120 65 -205q64 -84 187 -84q121 0 187 84q65 83 65 205v604h174v-627q0 -179 -118 -301q-119 -123 -308 -123q-147 0 -252 84v-506h-174z" />
<glyph unicode="&#xb6;" horiz-adv-x="1183" d="M86 1004q0 172 123 294q122 121 299 121h539v-1566h-175v1396h-194v-1396h-174v739q-177 6 -298 125q-120 119 -120 287z" />
<glyph unicode="&#xb7;" horiz-adv-x="501" d="M135 524q0 50 34 84q35 35 81 35q48 0 83 -35q34 -34 34 -84q0 -48 -34 -82t-83 -34q-47 0 -81 34t-34 82z" />
<glyph unicode="&#xb8;" horiz-adv-x="632" d="M125 -438l27 112q61 -26 131 -26q94 0 94 69q0 64 -94 64q-45 0 -109 -10l37 229h127l-19 -121q187 -5 187 -164q0 -80 -57 -134t-164 -54q-82 0 -160 35z" />
<glyph unicode="&#xba;" horiz-adv-x="931" d="M96 1038q0 159 105 270t264 111q161 0 266 -111t105 -270q0 -157 -105 -268t-266 -111t-265 111q-104 112 -104 268zM244 1038q0 -108 63 -179t158 -71q96 0 159 71q62 69 62 179t-62 181t-159 71q-93 0 -157 -71t-64 -181z" />
<glyph unicode="&#xbb;" horiz-adv-x="1054" d="M129 227l209 301l-209 299l141 99l277 -398l-277 -397zM508 227l211 301l-211 299l143 99l275 -398l-275 -397z" />
<glyph unicode="&#xbf;" horiz-adv-x="1034" d="M143 100q0 77 31 148q29 67 76 125q60 74 90 112q47 59 76 137q30 80 30 171h175q0 -103 -31 -194q-29 -87 -76 -149q-44 -59 -89 -113q-48 -58 -75 -108q-31 -57 -31 -110q0 -84 55 -137q56 -54 161 -54q125 0 270 90l74 -145q-185 -113 -347 -113q-183 0 -286 106 t-103 234zM410 1110q0 50 36 85q38 36 86 36q54 0 89 -36q34 -35 34 -85q0 -51 -34 -85t-89 -34q-49 0 -86 34q-36 33 -36 85z" />
<glyph unicode="&#xc0;" horiz-adv-x="1282" d="M57 0l473 1419h222l473 -1419h-183l-141 426h-520l-141 -426h-183zM420 1847h186l117 -297h-148zM432 586h418l-137 409q-29 85 -72 248q-42 -162 -72 -248z" />
<glyph unicode="&#xc1;" horiz-adv-x="1282" d="M57 0l473 1419h222l473 -1419h-183l-141 426h-520l-141 -426h-183zM432 586h418l-137 409q-29 85 -72 248q-42 -162 -72 -248zM561 1550l117 297h186l-155 -297h-148z" />
<glyph unicode="&#xc2;" horiz-adv-x="1282" d="M57 0l473 1419h222l473 -1419h-183l-141 426h-520l-141 -426h-183zM354 1550l199 297h178l199 -297h-182l-107 189l-104 -189h-183zM432 586h418l-137 409q-29 85 -72 248q-42 -162 -72 -248z" />
<glyph unicode="&#xc3;" horiz-adv-x="1282" d="M57 0l473 1419h222l473 -1419h-183l-141 426h-520l-141 -426h-183zM350 1718q46 56 81 78q39 25 95 25q53 0 126 -41t100 -41q51 0 102 61l76 -108q-44 -54 -81 -77q-37 -24 -95 -24q-51 0 -125 41t-101 41q-50 0 -102 -61zM432 586h418l-137 409q-29 85 -72 248 q-42 -162 -72 -248z" />
<glyph unicode="&#xc4;" horiz-adv-x="1282" d="M57 0l473 1419h222l473 -1419h-183l-141 426h-520l-141 -426h-183zM348 1696q0 46 33 81q32 33 80 33t80 -33t32 -81q0 -46 -32 -79q-33 -34 -80 -34t-80 34q-33 35 -33 79zM432 586h418l-137 409q-29 85 -72 248q-42 -162 -72 -248zM711 1696q0 48 32 81t78 33 q48 0 80 -33q33 -35 33 -81q0 -47 -33 -80t-80 -33q-45 0 -78 34q-32 33 -32 79z" />
<glyph unicode="&#xc5;" horiz-adv-x="1282" d="M57 0l473 1419h222l473 -1419h-183l-141 426h-520l-141 -426h-183zM432 586h418l-137 409q-29 85 -72 248q-42 -162 -72 -248zM442 1714q0 79 59 136t140 57q82 0 139 -57q58 -58 58 -136q0 -80 -58 -138q-56 -56 -139 -56t-140 56q-59 57 -59 138zM578 1712 q0 -24 18 -44q18 -19 45 -19q25 0 44 18q20 18 20 45q0 23 -19 45q-18 21 -43 21t-46 -19q-19 -18 -19 -47z" />
<glyph unicode="&#xc6;" horiz-adv-x="1898" d="M57 0l715 1419h801l31 -164h-562l78 -456h543l29 -160h-541l82 -475h577l31 -164h-758l-75 428h-543l-211 -428h-197zM547 588h432l-113 645z" />
<glyph unicode="&#xc7;" horiz-adv-x="1323" d="M104 709q0 205 82 369q83 166 248 267t389 101q203 0 398 -72l-43 -153q-176 59 -355 59q-262 0 -397 -163t-135 -408q0 -243 135 -407q135 -163 397 -163q159 0 353 64l45 -160q-183 -65 -390 -70l-12 -94q87 -1 136 -44t49 -120q0 -79 -58 -134q-57 -54 -162 -54 q-81 0 -159 35l24 112q65 -26 133 -26q51 0 71 20q21 21 21 49q0 64 -94 64q-39 0 -108 -10l35 211q-285 35 -443 238q-160 205 -160 489z" />
<glyph unicode="&#xc8;" horiz-adv-x="1040" d="M164 0v1419h762v-164h-584v-454h539l-25 -160h-514v-477h598v-164h-776zM354 1847h185l118 -297h-149z" />
<glyph unicode="&#xc9;" horiz-adv-x="1040" d="M164 0v1419h762v-164h-584v-454h539l-25 -160h-514v-477h598v-164h-776zM440 1550l119 297h184l-153 -297h-150z" />
<glyph unicode="&#xca;" horiz-adv-x="1040" d="M164 0v1419h762v-164h-584v-454h539l-25 -160h-514v-477h598v-164h-776zM264 1550l199 297h178l199 -297h-183l-106 189l-105 -189h-182z" />
<glyph unicode="&#xcb;" horiz-adv-x="1040" d="M164 0v1419h762v-164h-584v-454h539l-25 -160h-514v-477h598v-164h-776zM268 1696q0 46 33 81q32 33 80 33t80 -33q33 -35 33 -81q0 -45 -34 -79t-79 -34q-47 0 -80 34q-33 35 -33 79zM631 1696q0 46 33 81q32 33 77 33q48 0 80 -33q33 -35 33 -81q0 -47 -33 -80t-80 -33 q-44 0 -77 34q-33 35 -33 79z" />
<glyph unicode="&#xcc;" horiz-adv-x="505" d="M33 1847h186l117 -297h-148zM164 0v1419h178v-1419h-178z" />
<glyph unicode="&#xcd;" horiz-adv-x="505" d="M164 0v1419h178v-1419h-178zM174 1550l119 297h184l-153 -297h-150z" />
<glyph unicode="&#xce;" horiz-adv-x="505" d="M-35 1550l199 297h178l199 -297h-183l-106 189l-105 -189h-182zM164 0v1419h178v-1419h-178z" />
<glyph unicode="&#xcf;" horiz-adv-x="505" d="M-39 1696q0 46 33 81q32 33 80 33t80 -33t32 -81q0 -46 -33 -79q-34 -34 -79 -34q-47 0 -80 34q-33 35 -33 79zM164 0v1419h178v-1419h-178zM324 1696q0 48 32 81t78 33q48 0 80 -33q33 -35 33 -81q0 -47 -33 -80t-80 -33q-45 0 -78 34q-32 33 -32 79z" />
<glyph unicode="&#xd0;" horiz-adv-x="1415" d="M16 649v137h148v633h479q219 0 374 -99t224 -257q70 -160 70 -356q0 -310 -171 -508q-172 -199 -497 -199h-479v649h-148zM342 164h279q135 0 238 44q101 43 158 123q56 79 82 172q25 91 25 204q0 111 -25 204q-26 96 -82 174q-58 81 -158 125q-102 45 -238 45h-279v-469 h330v-137h-330v-485z" />
<glyph unicode="&#xd1;" horiz-adv-x="1400" d="M164 0v1389l164 30l729 -1097v1097h180v-1419h-168l-727 1094v-1094h-178zM410 1718q43 56 79 78q41 25 97 25q51 0 125 -41t98 -41q51 0 102 61l76 -108q-78 -101 -176 -101q-51 0 -124 41t-99 41q-51 0 -103 -61z" />
<glyph unicode="&#xd2;" horiz-adv-x="1634" d="M104 707q0 307 201 523t512 216t512 -216t201 -523q0 -308 -201 -521t-512 -213t-512 213t-201 521zM291 707q0 -241 145 -405q146 -165 381 -165t381 165q145 164 145 405q0 240 -145 407q-146 168 -381 168t-381 -168q-145 -167 -145 -407zM592 1847h184l119 -297h-150 z" />
<glyph unicode="&#xd3;" horiz-adv-x="1634" d="M104 707q0 307 201 523t512 216t512 -216t201 -523q0 -308 -201 -521t-512 -213t-512 213t-201 521zM291 707q0 -241 145 -405q146 -165 381 -165t381 165q145 164 145 405q0 240 -145 407q-146 168 -381 168t-381 -168q-145 -167 -145 -407zM727 1550l117 297h186 l-156 -297h-147z" />
<glyph unicode="&#xd4;" horiz-adv-x="1634" d="M104 707q0 307 201 523t512 216t512 -216t201 -523q0 -308 -201 -521t-512 -213t-512 213t-201 521zM291 707q0 -241 145 -405q146 -165 381 -165t381 165q145 164 145 405q0 240 -145 407q-146 168 -381 168t-381 -168q-145 -167 -145 -407zM530 1550l199 297h178 l199 -297h-182l-107 189l-104 -189h-183z" />
<glyph unicode="&#xd5;" horiz-adv-x="1634" d="M104 707q0 307 201 523t512 216t512 -216t201 -523q0 -308 -201 -521t-512 -213t-512 213t-201 521zM291 707q0 -241 145 -405q146 -165 381 -165t381 165q145 164 145 405q0 240 -145 407q-146 168 -381 168t-381 -168q-145 -167 -145 -407zM528 1718q42 55 80 78 q41 25 97 25q50 0 124 -41t99 -41q51 0 102 61l76 -108q-78 -101 -176 -101q-51 0 -124 41t-99 41q-51 0 -103 -61z" />
<glyph unicode="&#xd6;" horiz-adv-x="1634" d="M104 707q0 307 201 523t512 216t512 -216t201 -523q0 -308 -201 -521t-512 -213t-512 213t-201 521zM291 707q0 -241 145 -405q146 -165 381 -165t381 165q145 164 145 405q0 240 -145 407q-146 168 -381 168t-381 -168q-145 -167 -145 -407zM524 1696q0 46 33 81 q32 33 80 33t80 -33q33 -35 33 -81q0 -44 -33 -79q-33 -34 -80 -34t-80 34q-33 35 -33 79zM887 1696q0 46 33 81q32 33 77 33q48 0 80 -33q33 -35 33 -81q0 -47 -33 -80t-80 -33q-44 0 -77 34q-33 35 -33 79z" />
<glyph unicode="&#xd7;" horiz-adv-x="1011" d="M117 258l270 270l-270 271l119 119l270 -271l270 271l117 -119l-270 -271l270 -270l-117 -119l-270 271l-270 -271z" />
<glyph unicode="&#xd8;" horiz-adv-x="1634" d="M104 707q0 307 201 523t512 216q203 0 377 -109l115 160l104 -78l-117 -159q234 -220 234 -553q0 -308 -201 -521t-512 -213q-215 0 -379 105l-121 -166l-104 78l121 166q-230 218 -230 551zM291 707q0 -245 147 -408l656 903q-128 80 -277 80q-235 0 -381 -168 q-145 -167 -145 -407zM539 215q123 -78 278 -78q235 0 381 165q145 164 145 405q0 242 -149 407z" />
<glyph unicode="&#xd9;" horiz-adv-x="1347" d="M133 514v905h178v-882q0 -183 93 -291q94 -109 270 -109q174 0 267 110q93 109 93 292v880h180v-905q0 -235 -149 -387q-151 -154 -391 -154q-244 0 -392 153q-149 154 -149 388zM494 1847h184l119 -297h-150z" />
<glyph unicode="&#xda;" horiz-adv-x="1347" d="M133 514v905h178v-882q0 -183 93 -291q94 -109 270 -109q174 0 267 110q93 109 93 292v880h180v-905q0 -235 -149 -387q-151 -154 -391 -154q-244 0 -392 153q-149 154 -149 388zM575 1550l117 297h187l-156 -297h-148z" />
<glyph unicode="&#xdb;" horiz-adv-x="1347" d="M133 514v905h178v-882q0 -183 93 -291q94 -109 270 -109q174 0 267 110q93 109 93 292v880h180v-905q0 -235 -149 -387q-151 -154 -391 -154q-244 0 -392 153q-149 154 -149 388zM387 1550l199 297h178l199 -297h-183l-106 189l-105 -189h-182z" />
<glyph unicode="&#xdc;" horiz-adv-x="1347" d="M133 514v905h178v-882q0 -183 93 -291q94 -109 270 -109q174 0 267 110q93 109 93 292v880h180v-905q0 -235 -149 -387q-151 -154 -391 -154q-244 0 -392 153q-149 154 -149 388zM379 1696q0 46 33 81q32 33 80 33q47 0 79 -33q33 -35 33 -81q0 -45 -34 -79t-78 -34 q-47 0 -80 34q-33 35 -33 79zM741 1696q0 46 33 81q32 33 78 33q48 0 80 -33q33 -35 33 -81q0 -47 -33 -80t-80 -33q-45 0 -78 34q-33 35 -33 79z" />
<glyph unicode="&#xdd;" horiz-adv-x="1236" d="M57 1419h201l360 -657l363 657h199l-471 -835v-584h-185v584zM518 1550l119 297h184l-153 -297h-150z" />
<glyph unicode="&#xde;" horiz-adv-x="1103" d="M164 0v1419h178v-202h209q214 0 345 -116q130 -115 130 -313q0 -196 -135 -314q-134 -118 -352 -118h-197v-356h-178zM342 516h164q176 0 256 75t80 197q0 265 -326 265h-174v-537z" />
<glyph unicode="&#xdf;" horiz-adv-x="1200" d="M25 895v129h168v154q0 159 95 249q96 91 249 91q151 0 250 -91q98 -90 98 -249q0 -65 -32 -126q-31 -59 -70 -98q-37 -38 -69 -90q-32 -53 -32 -106q0 -54 46 -94q48 -42 112 -71q63 -29 130 -66q64 -36 110 -101t46 -156q0 -138 -105 -218q-104 -79 -245 -79 q-156 0 -307 82l45 152q151 -76 258 -76q74 0 124 38t50 101q0 56 -45 96q-44 39 -110 68q-59 25 -131 64q-64 34 -109 100t-45 160q0 66 32 127q31 60 68 95q38 36 69 87q32 52 32 104q0 189 -170 189t-170 -189v-1171h-174v895h-168z" />
<glyph unicode="&#xe0;" d="M94 514q0 222 136 379q137 158 345 158q207 0 332 -162v135l174 -20v-1004h-143l-18 152q-125 -179 -345 -179q-213 0 -347 158t-134 383zM274 514q0 -164 90 -274q89 -109 224 -109q134 0 232 106t98 277q0 168 -97 274q-96 105 -233 105q-133 0 -223 -107 q-91 -108 -91 -272zM389 1483h186l117 -297h-147z" />
<glyph unicode="&#xe1;" d="M94 514q0 222 136 379q137 158 345 158q207 0 332 -162v135l174 -20v-1004h-143l-18 152q-125 -179 -345 -179q-213 0 -347 158t-134 383zM274 514q0 -164 90 -274q89 -109 224 -109q134 0 232 106t98 277q0 168 -97 274q-96 105 -233 105q-133 0 -223 -107 q-91 -108 -91 -272zM520 1186l117 297h186l-155 -297h-148z" />
<glyph unicode="&#xe2;" d="M94 514q0 222 136 379q137 158 345 158q207 0 332 -162v135l174 -20v-1004h-143l-18 152q-125 -179 -345 -179q-213 0 -347 158t-134 383zM274 514q0 -164 90 -274q89 -109 224 -109q134 0 232 106t98 277q0 168 -97 274q-96 105 -233 105q-133 0 -223 -107 q-91 -108 -91 -272zM326 1186l198 297h178l199 -297h-182l-107 188l-104 -188h-182z" />
<glyph unicode="&#xe3;" d="M94 514q0 222 136 379q137 158 345 158q207 0 332 -162v135l174 -20v-1004h-143l-18 152q-125 -179 -345 -179q-213 0 -347 158t-134 383zM274 514q0 -164 90 -274q89 -109 224 -109q134 0 232 106t98 277q0 168 -97 274q-96 105 -233 105q-133 0 -223 -107 q-91 -108 -91 -272zM313 1354q46 56 81 78q38 24 95 24q53 0 127 -41t99 -41q51 0 102 62l76 -109q-44 -54 -81 -77q-36 -23 -95 -23q-51 0 -125 41t-100 41q-50 0 -103 -62z" />
<glyph unicode="&#xe4;" d="M94 514q0 222 136 379q137 158 345 158q207 0 332 -162v135l174 -20v-1004h-143l-18 152q-125 -179 -345 -179q-213 0 -347 158t-134 383zM274 514q0 -164 90 -274q89 -109 224 -109q134 0 232 106t98 277q0 168 -97 274q-96 105 -233 105q-133 0 -223 -107 q-91 -108 -91 -272zM319 1331q0 47 33 81t80 34t80 -34t33 -81q0 -45 -33 -79q-32 -33 -80 -33t-80 33q-33 34 -33 79zM682 1331q0 47 33 81t78 34q46 0 79 -34t33 -81t-33 -80q-32 -32 -79 -32q-46 0 -78 33q-33 34 -33 79z" />
<glyph unicode="&#xe5;" d="M94 514q0 222 136 379q137 158 345 158q207 0 332 -162v135l174 -20v-1004h-143l-18 152q-125 -179 -345 -179q-213 0 -347 158t-134 383zM274 514q0 -164 90 -274q89 -109 224 -109q134 0 232 106t98 277q0 168 -97 274q-96 105 -233 105q-133 0 -223 -107 q-91 -108 -91 -272zM414 1350q0 79 58 136q57 56 140 56q84 0 140 -56q57 -57 57 -136q0 -82 -57 -139q-56 -56 -140 -56q-85 0 -141 56q-57 57 -57 139zM549 1350q0 -24 18 -45t45 -21q21 0 43 19q21 18 21 45q0 23 -19 45q-17 20 -43 20t-46 -18q-19 -18 -19 -45z" />
<glyph unicode="&#xe6;" horiz-adv-x="1849" d="M90 328q0 145 110 222t302 77h305q-23 123 -96 192q-75 70 -197 70q-155 0 -317 -66l-33 156q157 72 350 72q125 0 230 -57t165 -171q133 228 394 228q227 0 345 -156q117 -154 117 -399h-768q5 -160 97 -263q92 -102 256 -102q139 0 301 64l35 -154q-157 -68 -338 -68 q-149 0 -263 64q-112 63 -176 172q-59 -110 -165 -173q-105 -63 -234 -63q-194 0 -307 101t-113 254zM266 330q0 -98 66 -147q67 -50 178 -50q132 0 218 85q87 85 91 274h-315q-238 0 -238 -162zM1008 627h579q-44 266 -284 266q-106 0 -188 -67q-80 -65 -107 -199z" />
<glyph unicode="&#xe7;" horiz-adv-x="1048" d="M94 512q0 226 146 383q146 156 389 156q172 0 346 -74l-49 -146q-159 62 -295 62q-167 0 -261 -111q-96 -113 -96 -270t96 -270q95 -111 259 -111q124 0 293 68l51 -154q-146 -66 -311 -72l-15 -94q187 -5 187 -164q0 -79 -58 -134q-57 -54 -164 -54q-81 0 -159 35 l26 112q61 -26 131 -26q95 0 95 69q0 64 -95 64q-44 0 -108 -10l33 211q-204 29 -322 178q-119 151 -119 352z" />
<glyph unicode="&#xe8;" horiz-adv-x="1120" d="M94 510q0 229 133 384q134 157 346 157q227 0 346 -156q117 -154 117 -399h-762q5 -161 96 -263q92 -102 251 -102q139 0 301 64l34 -154q-157 -68 -338 -68q-238 0 -381 155t-143 382zM285 627h573q-44 266 -285 266q-105 0 -184 -67q-77 -65 -104 -199zM362 1483h187 l117 -297h-148z" />
<glyph unicode="&#xe9;" horiz-adv-x="1120" d="M94 510q0 229 133 384q134 157 346 157q227 0 346 -156q117 -154 117 -399h-762q5 -161 96 -263q92 -102 251 -102q139 0 301 64l34 -154q-157 -68 -338 -68q-238 0 -381 155t-143 382zM285 627h573q-44 266 -285 266q-105 0 -184 -67q-77 -65 -104 -199zM485 1186 l117 297h186l-155 -297h-148z" />
<glyph unicode="&#xea;" horiz-adv-x="1120" d="M94 510q0 229 133 384q134 157 346 157q227 0 346 -156q117 -154 117 -399h-762q5 -161 96 -263q92 -102 251 -102q139 0 301 64l34 -154q-157 -68 -338 -68q-238 0 -381 155t-143 382zM276 1186l199 297h178l199 -297h-182l-107 188l-104 -188h-183zM285 627h573 q-44 266 -285 266q-105 0 -184 -67q-77 -65 -104 -199z" />
<glyph unicode="&#xeb;" horiz-adv-x="1120" d="M94 510q0 229 133 384q134 157 346 157q227 0 346 -156q117 -154 117 -399h-762q5 -161 96 -263q92 -102 251 -102q139 0 301 64l34 -154q-157 -68 -338 -68q-238 0 -381 155t-143 382zM266 1331q0 47 33 81t80 34t80 -34t33 -81q0 -45 -33 -79q-32 -33 -80 -33t-80 33 q-33 34 -33 79zM285 627h573q-44 266 -285 266q-105 0 -184 -67q-77 -65 -104 -199zM629 1331q0 47 33 81t77 34q47 0 80 -34t33 -81t-33 -80q-32 -32 -80 -32q-45 0 -77 33q-33 34 -33 79z" />
<glyph unicode="&#xec;" horiz-adv-x="458" d="M-2 1483h184l119 -297h-149zM143 0v1024h174v-1024h-174z" />
<glyph unicode="&#xed;" horiz-adv-x="458" d="M143 0v1024h174v-1024h-174zM154 1186l118 297h185l-154 -297h-149z" />
<glyph unicode="&#xee;" horiz-adv-x="458" d="M-57 1186l198 297h178l199 -297h-182l-107 188l-104 -188h-182zM143 0v1024h174v-1024h-174z" />
<glyph unicode="&#xef;" horiz-adv-x="458" d="M-63 1331q0 48 32 81q33 34 80 34t80 -34t33 -81q0 -45 -34 -79q-33 -33 -79 -33q-48 0 -80 33t-32 79zM143 0v1024h174v-1024h-174zM299 1331q0 47 33 81t78 34q46 0 79 -34t33 -81t-33 -80q-32 -32 -79 -32q-46 0 -78 33q-33 34 -33 79z" />
<glyph unicode="&#xf0;" horiz-adv-x="1236" d="M98 485q0 213 149 364q149 150 371 150q126 0 242 -67q-52 128 -139 254l-182 -66l-45 117l157 57q-27 41 -119 156l152 66q71 -82 131 -162l182 65l45 -116l-153 -58q250 -386 250 -760q0 -210 -148 -361t-373 -151q-226 0 -373 150t-147 362zM279 485q0 -153 96 -254 q96 -100 243 -100q151 0 245 100q95 101 95 254t-95 254t-245 101q-147 0 -243 -101t-96 -254z" />
<glyph unicode="&#xf1;" horiz-adv-x="1126" d="M143 0v1004l148 20l18 -158q108 185 344 185q153 0 247 -106q93 -105 93 -286v-659h-174v629q0 123 -51 193q-51 71 -150 71q-136 0 -219 -110q-82 -109 -82 -306v-477h-174zM272 1354q46 56 81 78q38 24 96 24q52 0 125 -41t100 -41q51 0 102 62l76 -109 q-44 -54 -81 -77q-36 -23 -95 -23q-51 0 -125 41t-100 41q-50 0 -103 -62z" />
<glyph unicode="&#xf2;" horiz-adv-x="1228" d="M94 512q0 222 148 381q147 158 372 158q226 0 373 -158q148 -159 148 -381q0 -226 -147 -382q-148 -157 -374 -157q-225 0 -373 157q-147 156 -147 382zM274 512q0 -160 97 -271q96 -110 243 -110q148 0 244 110t96 271q0 162 -96 271q-96 110 -244 110q-147 0 -243 -110 q-97 -111 -97 -271zM401 1483h187l117 -297h-148z" />
<glyph unicode="&#xf3;" horiz-adv-x="1228" d="M94 512q0 222 148 381q147 158 372 158q226 0 373 -158q148 -159 148 -381q0 -226 -147 -382q-148 -157 -374 -157q-225 0 -373 157q-147 156 -147 382zM274 512q0 -160 97 -271q96 -110 243 -110q148 0 244 110t96 271q0 162 -96 271q-96 110 -244 110q-147 0 -243 -110 q-97 -111 -97 -271zM528 1186l117 297h186l-155 -297h-148z" />
<glyph unicode="&#xf4;" horiz-adv-x="1228" d="M94 512q0 222 148 381q147 158 372 158q226 0 373 -158q148 -159 148 -381q0 -226 -147 -382q-148 -157 -374 -157q-225 0 -373 157q-147 156 -147 382zM274 512q0 -160 97 -271q96 -110 243 -110q148 0 244 110t96 271q0 162 -96 271q-96 110 -244 110q-147 0 -243 -110 q-97 -111 -97 -271zM328 1186l198 297h179l198 -297h-182l-107 188l-104 -188h-182z" />
<glyph unicode="&#xf5;" horiz-adv-x="1228" d="M94 512q0 222 148 381q147 158 372 158q226 0 373 -158q148 -159 148 -381q0 -226 -147 -382q-148 -157 -374 -157q-225 0 -373 157q-147 156 -147 382zM274 512q0 -160 97 -271q96 -110 243 -110q148 0 244 110t96 271q0 162 -96 271q-96 110 -244 110q-147 0 -243 -110 q-97 -111 -97 -271zM326 1354q42 55 80 78q39 24 96 24q51 0 125 -41t98 -41q51 0 102 62l76 -109q-78 -100 -176 -100q-51 0 -124 41t-99 41q-50 0 -103 -62z" />
<glyph unicode="&#xf6;" horiz-adv-x="1228" d="M94 512q0 222 148 381q147 158 372 158q226 0 373 -158q148 -159 148 -381q0 -226 -147 -382q-148 -157 -374 -157q-225 0 -373 157q-147 156 -147 382zM274 512q0 -160 97 -271q96 -110 243 -110q148 0 244 110t96 271q0 162 -96 271q-96 110 -244 110q-147 0 -243 -110 q-97 -111 -97 -271zM322 1331q0 48 32 81q33 34 80 34t80 -34t33 -81q0 -45 -34 -79q-33 -33 -79 -33q-48 0 -80 33t-32 79zM684 1331q0 47 33 81t78 34q46 0 79 -34t33 -81t-33 -80q-32 -32 -79 -32q-46 0 -78 33q-33 34 -33 79z" />
<glyph unicode="&#xf8;" horiz-adv-x="1228" d="M94 512q0 222 148 381q147 158 372 158q144 0 265 -72l116 162l105 -80l-119 -162q154 -159 154 -387q0 -226 -147 -382q-148 -157 -374 -157q-140 0 -258 66l-118 -166l-107 80l121 166q-158 153 -158 393zM274 512q0 -148 80 -254l428 590q-78 45 -168 45 q-147 0 -243 -110q-97 -111 -97 -271zM453 172q73 -41 161 -41q148 0 244 110t96 271q0 147 -75 246z" />
<glyph unicode="&#xf9;" horiz-adv-x="1126" d="M133 365v659h174v-629q0 -122 50 -193t149 -71q137 0 220 110t83 306v477h174v-1024h-147l-21 156q-108 -183 -342 -183q-153 0 -247 106q-93 105 -93 286zM344 1483h186l117 -297h-147z" />
<glyph unicode="&#xfa;" horiz-adv-x="1126" d="M133 365v659h174v-629q0 -122 50 -193t149 -71q137 0 220 110t83 306v477h174v-1024h-147l-21 156q-108 -183 -342 -183q-153 0 -247 106q-93 105 -93 286zM471 1186l117 297h186l-156 -297h-147z" />
<glyph unicode="&#xfb;" horiz-adv-x="1126" d="M133 365v659h174v-629q0 -122 50 -193t149 -71q137 0 220 110t83 306v477h174v-1024h-147l-21 156q-108 -183 -342 -183q-153 0 -247 106q-93 105 -93 286zM272 1186l199 297h178l199 -297h-182l-107 188l-104 -188h-183z" />
<glyph unicode="&#xfc;" horiz-adv-x="1126" d="M133 365v659h174v-629q0 -122 50 -193t149 -71q137 0 220 110t83 306v477h174v-1024h-147l-21 156q-108 -183 -342 -183q-153 0 -247 106q-93 105 -93 286zM270 1331q0 47 33 81t80 34t80 -34t33 -81q0 -45 -33 -79q-32 -33 -80 -33t-80 33q-33 34 -33 79zM633 1331 q0 47 33 81t77 34q47 0 80 -34t33 -81t-33 -80q-32 -32 -80 -32q-45 0 -77 33q-33 34 -33 79z" />
<glyph unicode="&#xfd;" horiz-adv-x="1001" d="M29 -426l51 145q76 -36 149 -36q103 0 150 141l57 176h-30l-363 1024h184l215 -637q7 -18 66 -223q27 116 63 225l203 635h182l-424 -1272q-38 -112 -114 -169q-77 -58 -176 -58q-115 0 -213 49zM406 1186l116 297h187l-156 -297h-147z" />
<glyph unicode="&#xfe;" d="M143 -449v1940h174v-604q123 164 332 164q211 0 346 -158q135 -157 135 -381t-135 -381q-135 -158 -346 -158q-213 0 -332 160v-582h-174zM307 510q0 -170 97 -274q98 -105 233 -105q136 0 224 108q89 109 89 273t-89 273q-88 108 -224 108q-138 0 -234 -107 q-96 -106 -96 -276z" />
<glyph unicode="&#xff;" horiz-adv-x="1001" d="M29 -426l51 145q76 -36 149 -36q103 0 150 141l57 176h-30l-363 1024h184l215 -637q7 -18 66 -223q27 116 63 225l203 635h182l-424 -1272q-38 -112 -114 -169q-77 -58 -176 -58q-115 0 -213 49zM207 1331q0 47 33 81t79 34q47 0 80 -34t33 -81q0 -45 -34 -79 q-33 -33 -79 -33q-47 0 -79 33q-33 34 -33 79zM569 1331q0 47 33 81t78 34q47 0 80 -34t33 -81t-33 -80q-32 -32 -80 -32q-46 0 -78 33q-33 34 -33 79z" />
<glyph unicode="&#x152;" horiz-adv-x="2224" d="M104 707q0 307 201 523t512 216q333 0 531 -256v229h761v-164h-583v-452h538l-24 -164h-514v-475h598v-164h-776v223q-198 -250 -531 -250q-311 0 -512 213t-201 521zM291 707q0 -241 145 -405q146 -165 381 -165t381 165q145 164 145 405q0 240 -145 407 q-146 168 -381 168t-381 -168q-145 -167 -145 -407z" />
<glyph unicode="&#x153;" horiz-adv-x="1984" d="M94 512q0 222 148 381q147 158 372 158q137 0 249 -65q111 -65 177 -175q60 111 163 175q104 65 235 65q227 0 345 -156q118 -155 118 -399h-768q6 -162 97 -263q92 -102 255 -102q137 0 303 64l33 -154q-157 -68 -338 -68q-301 0 -441 240q-66 -110 -177 -175 q-112 -65 -251 -65q-225 0 -373 157q-147 156 -147 382zM274 512q0 -160 97 -271q96 -110 243 -110q150 0 246 110t96 271q0 162 -96 271q-96 110 -246 110q-147 0 -243 -110q-97 -111 -97 -271zM1143 627h579q-44 266 -284 266q-106 0 -188 -67q-80 -65 -107 -199z" />
<glyph unicode="&#x178;" horiz-adv-x="1236" d="M57 1419h201l360 -657l363 657h199l-471 -835v-584h-185v584zM326 1696q0 48 32 81t80 33t80 -33q33 -35 33 -81q0 -45 -34 -79t-79 -34q-47 0 -80 34q-32 33 -32 79zM688 1696q0 46 33 81q32 33 78 33q48 0 80 -33t32 -81t-32 -80q-33 -33 -80 -33q-45 0 -78 34 q-33 35 -33 79z" />
<glyph unicode="&#x2c6;" horiz-adv-x="790" d="M109 1186l198 297h178l199 -297h-182l-107 188l-104 -188h-182z" />
<glyph unicode="&#x2dc;" horiz-adv-x="763" d="M92 1354q46 56 81 78q38 24 95 24q53 0 127 -41t99 -41q51 0 102 62l76 -109q-44 -54 -81 -77q-36 -23 -95 -23q-51 0 -125 41t-101 41q-49 0 -102 -62z" />
<glyph unicode="&#x2000;" horiz-adv-x="953" />
<glyph unicode="&#x2001;" horiz-adv-x="1907" />
<glyph unicode="&#x2002;" horiz-adv-x="953" />
<glyph unicode="&#x2003;" horiz-adv-x="1907" />
<glyph unicode="&#x2004;" horiz-adv-x="635" />
<glyph unicode="&#x2005;" horiz-adv-x="476" />
<glyph unicode="&#x2006;" horiz-adv-x="317" />
<glyph unicode="&#x2007;" horiz-adv-x="317" />
<glyph unicode="&#x2008;" horiz-adv-x="238" />
<glyph unicode="&#x2009;" horiz-adv-x="381" />
<glyph unicode="&#x200a;" horiz-adv-x="105" />
<glyph unicode="&#x2010;" horiz-adv-x="921" d="M152 451v155h618v-155h-618z" />
<glyph unicode="&#x2011;" horiz-adv-x="921" d="M152 451v155h618v-155h-618z" />
<glyph unicode="&#x2012;" horiz-adv-x="921" d="M152 451v155h618v-155h-618z" />
<glyph unicode="&#x2013;" horiz-adv-x="1024" d="M0 492v161h1024v-161h-1024z" />
<glyph unicode="&#x2014;" horiz-adv-x="2048" d="M0 492v161h2050v-161h-2050z" />
<glyph unicode="&#x2018;" horiz-adv-x="497" d="M154 1012l139 483l108 -18l-82 -494z" />
<glyph unicode="&#x2019;" horiz-adv-x="497" d="M156 1001l82 494l165 -29l-137 -483z" />
<glyph unicode="&#x201a;" horiz-adv-x="477" d="M113 -274l82 493l165 -29l-139 -483z" />
<glyph unicode="&#x201c;" horiz-adv-x="798" d="M137 1012l137 483l111 -18l-82 -494zM430 1012l137 483l111 -18l-82 -494z" />
<glyph unicode="&#x201d;" horiz-adv-x="798" d="M152 1001l81 494l166 -29l-137 -483zM446 1001l82 494l166 -29l-139 -483z" />
<glyph unicode="&#x201e;" horiz-adv-x="757" d="M113 -274l82 493l165 -29l-139 -483zM406 -274l81 493l166 -29l-137 -483z" />
<glyph unicode="&#x2022;" horiz-adv-x="983" d="M164 590q0 134 95 231t233 97q134 0 231 -97q96 -96 96 -231q0 -138 -96 -234t-231 -96q-138 0 -233 96q-95 97 -95 234z" />
<glyph unicode="&#x2026;" horiz-adv-x="1712" d="M139 98q0 52 36 86q37 35 87 35q48 0 85 -35q36 -34 36 -86q0 -48 -36 -86q-36 -37 -85 -37q-51 0 -87 37q-36 38 -36 86zM764 98q0 49 37 85t86 36q50 0 87 -35q36 -34 36 -86q0 -48 -36 -86q-36 -37 -87 -37q-49 0 -86 37t-37 86zM1346 98q0 52 35 86q37 35 87 35 q48 0 85 -35q36 -34 36 -86q0 -48 -36 -86q-36 -37 -85 -37q-51 0 -87 37q-35 36 -35 86z" />
<glyph unicode="&#x202f;" horiz-adv-x="381" />
<glyph unicode="&#x2039;" horiz-adv-x="677" d="M129 528l277 398l143 -99l-211 -299l211 -301l-143 -96z" />
<glyph unicode="&#x203a;" horiz-adv-x="675" d="M129 227l209 299l-209 301l141 97l277 -398l-277 -397z" />
<glyph unicode="&#x205f;" horiz-adv-x="476" />
<glyph unicode="&#x20ac;" horiz-adv-x="1177" d="M121 461v127h84q-4 35 -4 121q0 85 6 125h-86v127h106q56 224 205 354q151 131 369 131q167 0 303 -45l-45 -156q-115 37 -250 37q-157 0 -255 -85q-100 -86 -140 -236h551l-39 -127h-537q-6 -61 -6 -125q0 -61 6 -121h473l-39 -127h-409q86 -324 395 -324q135 0 250 37 l45 -156q-136 -45 -303 -45q-218 0 -369 131q-149 130 -205 357h-106z" />
<glyph unicode="&#x2122;" horiz-adv-x="1605" d="M96 1298v121h522v-121h-196v-553h-129v553h-197zM678 748l98 671h146l161 -534l164 534h146l98 -671h-131l-60 469l-151 -469h-129l-152 469l-59 -469h-131z" />
<glyph unicode="&#x25fc;" horiz-adv-x="1024" d="M0 0v1024h1024v-1024h-1024z" />
</font>
</defs>
</svg>
